<mxfile host="app.diagrams.net" modified="2023-12-04T06:41:33.357Z" agent="Mozilla/5.0 (Windows NT 10.0; Win64; x64) AppleWebKit/537.36 (KHTML, like Gecko) Chrome/116.0.0.0 Safari/537.36 OPR/102.0.0.0" etag="NDel3uC-4Ljhur1XzHk_" version="22.1.5" type="github">
  <diagram name="Página-1" id="4iXY_Nk34Ne-SheheuSN">
    <mxGraphModel dx="737" dy="417" grid="1" gridSize="10" guides="1" tooltips="1" connect="1" arrows="1" fold="1" page="1" pageScale="1" pageWidth="1920" pageHeight="1200" math="0" shadow="0">
      <root>
        <mxCell id="0" />
        <mxCell id="1" parent="0" />
        <mxCell id="6sOeRgY5XGvY_d-i2xNn-13" style="edgeStyle=orthogonalEdgeStyle;rounded=0;orthogonalLoop=1;jettySize=auto;html=1;exitX=0;exitY=0.5;exitDx=0;exitDy=0;entryX=0.5;entryY=0;entryDx=0;entryDy=0;" edge="1" parent="1" source="6sOeRgY5XGvY_d-i2xNn-1" target="6sOeRgY5XGvY_d-i2xNn-3">
          <mxGeometry relative="1" as="geometry" />
        </mxCell>
        <mxCell id="6sOeRgY5XGvY_d-i2xNn-14" value="Tipos" style="edgeLabel;html=1;align=center;verticalAlign=middle;resizable=0;points=[];" vertex="1" connectable="0" parent="6sOeRgY5XGvY_d-i2xNn-13">
          <mxGeometry x="0.0213" y="-1" relative="1" as="geometry">
            <mxPoint as="offset" />
          </mxGeometry>
        </mxCell>
        <mxCell id="6sOeRgY5XGvY_d-i2xNn-1" value="Lugar&lt;br style=&quot;font-size: 11px;&quot;&gt;o conjunto de datos de donde se extrae la información para su uso, análisis o&lt;br style=&quot;font-size: 11px;&quot;&gt;procesamiento." style="rounded=0;whiteSpace=wrap;html=1;fillColor=#d5e8d4;strokeColor=#82b366;align=center;fontSize=11;" vertex="1" parent="1">
          <mxGeometry x="420" y="510" width="100" height="90" as="geometry" />
        </mxCell>
        <mxCell id="6sOeRgY5XGvY_d-i2xNn-12" style="edgeStyle=orthogonalEdgeStyle;rounded=0;orthogonalLoop=1;jettySize=auto;html=1;exitX=0;exitY=0.5;exitDx=0;exitDy=0;entryX=1;entryY=0.5;entryDx=0;entryDy=0;" edge="1" parent="1" source="6sOeRgY5XGvY_d-i2xNn-2" target="6sOeRgY5XGvY_d-i2xNn-1">
          <mxGeometry relative="1" as="geometry" />
        </mxCell>
        <mxCell id="6sOeRgY5XGvY_d-i2xNn-15" style="edgeStyle=orthogonalEdgeStyle;rounded=0;orthogonalLoop=1;jettySize=auto;html=1;exitX=1;exitY=0.5;exitDx=0;exitDy=0;entryX=0;entryY=0.5;entryDx=0;entryDy=0;" edge="1" parent="1" source="6sOeRgY5XGvY_d-i2xNn-2" target="6sOeRgY5XGvY_d-i2xNn-5">
          <mxGeometry relative="1" as="geometry" />
        </mxCell>
        <mxCell id="6sOeRgY5XGvY_d-i2xNn-2" value="Fuente de Datos" style="text;html=1;strokeColor=none;fillColor=none;align=center;verticalAlign=middle;whiteSpace=wrap;rounded=0;fontStyle=1;fontSize=13;" vertex="1" parent="1">
          <mxGeometry x="595" y="540" width="60" height="30" as="geometry" />
        </mxCell>
        <mxCell id="6sOeRgY5XGvY_d-i2xNn-3" value="&lt;p class=&quot;MsoNormal&quot;&gt;&lt;/p&gt;&lt;ul&gt;&lt;li&gt;&lt;i&gt;Base de Datos Relacional:&lt;/i&gt; Almacena datos en tablas relacionadas entre sí.&lt;/li&gt;&lt;li&gt;&lt;span style=&quot;background-color: initial;&quot;&gt;&lt;i&gt;Base de Datos No Relacional (NoSQL)&lt;/i&gt;: Utiliza diferentes &lt;/span&gt;&lt;span style=&quot;background-color: initial;&quot;&gt;modelos para almacenar datos, como documentos, gráficos o clave-valor.&lt;/span&gt;&lt;/li&gt;&lt;li&gt;&lt;span style=&quot;background-color: initial;&quot;&gt;&lt;i&gt;Archivos:&lt;/i&gt; Pueden ser documentos de texto, hojas de cálculo,&amp;nbsp;&lt;/span&gt;&lt;span style=&quot;background-color: initial;&quot;&gt;archivos XML, etc.&lt;/span&gt;&lt;/li&gt;&lt;li&gt;&lt;i&gt;Servicios Web:&lt;/i&gt; Proporcionan datos a través de APIs&amp;nbsp;&lt;/li&gt;&lt;/ul&gt;&lt;p&gt;&lt;/p&gt;" style="rounded=0;whiteSpace=wrap;html=1;fillColor=#eeeeee;strokeColor=#36393d;align=left;fontSize=11;" vertex="1" parent="1">
          <mxGeometry x="280" y="650" width="230" height="150" as="geometry" />
        </mxCell>
        <mxCell id="6sOeRgY5XGvY_d-i2xNn-21" style="edgeStyle=orthogonalEdgeStyle;rounded=0;orthogonalLoop=1;jettySize=auto;html=1;exitX=0.5;exitY=1;exitDx=0;exitDy=0;entryX=0.5;entryY=0;entryDx=0;entryDy=0;" edge="1" parent="1" source="6sOeRgY5XGvY_d-i2xNn-4" target="6sOeRgY5XGvY_d-i2xNn-11">
          <mxGeometry relative="1" as="geometry" />
        </mxCell>
        <mxCell id="6sOeRgY5XGvY_d-i2xNn-22" style="edgeStyle=orthogonalEdgeStyle;rounded=0;orthogonalLoop=1;jettySize=auto;html=1;exitX=0.5;exitY=1;exitDx=0;exitDy=0;entryX=0.25;entryY=0;entryDx=0;entryDy=0;" edge="1" parent="1" source="6sOeRgY5XGvY_d-i2xNn-4" target="6sOeRgY5XGvY_d-i2xNn-10">
          <mxGeometry relative="1" as="geometry" />
        </mxCell>
        <mxCell id="6sOeRgY5XGvY_d-i2xNn-4" value="&amp;nbsp;Interfaz o software que permite la&lt;br/&gt;comunicación entre una aplicación y una fuente de datos." style="rounded=0;whiteSpace=wrap;html=1;fillColor=#d5e8d4;strokeColor=#82b366;align=center;fontSize=11;" vertex="1" parent="1">
          <mxGeometry x="802.5" y="610" width="125" height="90" as="geometry" />
        </mxCell>
        <mxCell id="6sOeRgY5XGvY_d-i2xNn-17" style="edgeStyle=orthogonalEdgeStyle;rounded=0;orthogonalLoop=1;jettySize=auto;html=1;exitX=0.5;exitY=1;exitDx=0;exitDy=0;entryX=0.5;entryY=0;entryDx=0;entryDy=0;" edge="1" parent="1" source="6sOeRgY5XGvY_d-i2xNn-5" target="6sOeRgY5XGvY_d-i2xNn-4">
          <mxGeometry relative="1" as="geometry" />
        </mxCell>
        <mxCell id="6sOeRgY5XGvY_d-i2xNn-18" style="edgeStyle=orthogonalEdgeStyle;rounded=0;orthogonalLoop=1;jettySize=auto;html=1;exitX=1;exitY=0.5;exitDx=0;exitDy=0;entryX=0;entryY=0.5;entryDx=0;entryDy=0;" edge="1" parent="1" source="6sOeRgY5XGvY_d-i2xNn-5" target="6sOeRgY5XGvY_d-i2xNn-8">
          <mxGeometry relative="1" as="geometry" />
        </mxCell>
        <mxCell id="6sOeRgY5XGvY_d-i2xNn-19" style="edgeStyle=orthogonalEdgeStyle;rounded=0;orthogonalLoop=1;jettySize=auto;html=1;exitX=1;exitY=0.5;exitDx=0;exitDy=0;entryX=0;entryY=0.25;entryDx=0;entryDy=0;" edge="1" parent="1" source="6sOeRgY5XGvY_d-i2xNn-5" target="6sOeRgY5XGvY_d-i2xNn-9">
          <mxGeometry relative="1" as="geometry" />
        </mxCell>
        <mxCell id="6sOeRgY5XGvY_d-i2xNn-23" style="edgeStyle=orthogonalEdgeStyle;rounded=0;orthogonalLoop=1;jettySize=auto;html=1;exitX=0.5;exitY=0;exitDx=0;exitDy=0;entryX=0.5;entryY=1;entryDx=0;entryDy=0;" edge="1" parent="1" source="6sOeRgY5XGvY_d-i2xNn-5" target="6sOeRgY5XGvY_d-i2xNn-6">
          <mxGeometry relative="1" as="geometry" />
        </mxCell>
        <mxCell id="6sOeRgY5XGvY_d-i2xNn-24" style="edgeStyle=orthogonalEdgeStyle;rounded=0;orthogonalLoop=1;jettySize=auto;html=1;exitX=0.5;exitY=0;exitDx=0;exitDy=0;entryX=0.5;entryY=1;entryDx=0;entryDy=0;" edge="1" parent="1" source="6sOeRgY5XGvY_d-i2xNn-5" target="6sOeRgY5XGvY_d-i2xNn-7">
          <mxGeometry relative="1" as="geometry" />
        </mxCell>
        <mxCell id="6sOeRgY5XGvY_d-i2xNn-5" value="Manejador de Conexión&amp;nbsp;" style="text;html=1;strokeColor=none;fillColor=none;align=center;verticalAlign=middle;whiteSpace=wrap;rounded=0;fontStyle=1;fontSize=13;" vertex="1" parent="1">
          <mxGeometry x="835" y="540" width="60" height="30" as="geometry" />
        </mxCell>
        <mxCell id="6sOeRgY5XGvY_d-i2xNn-6" value="&lt;p class=&quot;MsoNormal&quot;&gt;&lt;/p&gt;&lt;div&gt;&lt;p style=&quot;text-align: center;&quot; class=&quot;MsoNormal&quot;&gt;&lt;b&gt;ODBC (Open Database Connectivity):&lt;/b&gt;&lt;/p&gt;&lt;p class=&quot;MsoNormal&quot;&gt;&lt;span style=&quot;background-color: initial;&quot;&gt;Estándar que proporciona una capa de abstracción para acceder a diversas fuentes de datos.&lt;/span&gt;&lt;/p&gt;&lt;p class=&quot;MsoNormal&quot;&gt;&lt;span style=&quot;background-color: initial;&quot;&gt;Uso: Comúnmente utilizado en entornos Windows.&lt;/span&gt;&lt;/p&gt;&lt;p class=&quot;MsoNormal&quot;&gt;Lenguajes: C, C++, Java, .NET, PHP, Python, etc.&lt;/p&gt;&lt;p class=&quot;MsoNormal&quot;&gt;&lt;span style=&quot;background-color: initial;&quot;&gt;Puede conectarse a una variedad de bases de datos, incluyendo MySQL, PostgreSQL, SQL Server, Oracle, y más.&lt;/span&gt;&lt;/p&gt;&lt;p class=&quot;MsoNormal&quot;&gt;&lt;/p&gt;&lt;/div&gt;&lt;p&gt;&lt;/p&gt;" style="rounded=0;whiteSpace=wrap;html=1;fillColor=#eeeeee;strokeColor=#36393d;align=left;fontSize=11;" vertex="1" parent="1">
          <mxGeometry x="650" y="200" width="230" height="200" as="geometry" />
        </mxCell>
        <mxCell id="6sOeRgY5XGvY_d-i2xNn-7" value="&lt;p class=&quot;MsoNormal&quot;&gt;&lt;/p&gt;&lt;div&gt;&lt;p style=&quot;text-align: center;&quot; class=&quot;MsoNormal&quot;&gt;&lt;b&gt;JDBC (Java Database Connectivity):&lt;/b&gt;&lt;/p&gt;&lt;p class=&quot;MsoNormal&quot;&gt;API de Java que permite la conexión a bases de datos relacionales.&lt;/p&gt;&lt;p class=&quot;MsoNormal&quot;&gt;Uso: Principalmente en aplicaciones Java.&lt;/p&gt;&lt;p class=&quot;MsoNormal&quot;&gt;Lenguajes: Java.&lt;/p&gt;&lt;p class=&quot;MsoNormal&quot;&gt;&lt;span style=&quot;background-color: initial;&quot;&gt;Principalmente utilizado con bases de datos relacionales como MySQL,&amp;nbsp;&lt;/span&gt;&lt;span style=&quot;background-color: initial;&quot;&gt;PostgreSQL, Oracle, SQL Server, entre otros.&lt;/span&gt;&lt;/p&gt;&lt;p class=&quot;MsoNormal&quot;&gt;&lt;/p&gt;&lt;/div&gt;&lt;p&gt;&lt;/p&gt;" style="rounded=0;whiteSpace=wrap;html=1;fillColor=#eeeeee;strokeColor=#36393d;align=left;fontSize=11;" vertex="1" parent="1">
          <mxGeometry x="915" y="210" width="230" height="160" as="geometry" />
        </mxCell>
        <mxCell id="6sOeRgY5XGvY_d-i2xNn-8" value="&lt;p class=&quot;MsoNormal&quot;&gt;&lt;/p&gt;&lt;div&gt;&lt;p style=&quot;text-align: center;&quot; class=&quot;MsoNormal&quot;&gt;&lt;b&gt;ADODB (ActiveX Data Objects Database):&lt;/b&gt;&lt;/p&gt;&lt;p class=&quot;MsoNormal&quot;&gt;Tecnología de Microsoft para acceder a bases de datos mediante objetos ActiveX.&lt;/p&gt;&lt;p class=&quot;MsoNormal&quot;&gt;Uso: Principalmente con entornos de desarrollo Microsoft.&lt;/p&gt;&lt;p class=&quot;MsoNormal&quot;&gt;Lenguajes: Principalmente con lenguajes y entornos de desarrollo de Microsoft como Visual Basic, VBA, etc.&lt;/p&gt;&lt;p class=&quot;MsoNormal&quot;&gt;&lt;span style=&quot;background-color: initial;&quot;&gt;Puede &lt;/span&gt;&lt;span style=&quot;background-color: initial;&quot;&gt;conectarse a bases de datos como Microsoft Access, SQL Server, y otros&amp;nbsp;&lt;/span&gt;&lt;span style=&quot;background-color: initial;&quot;&gt;compatibles con OLE DB.&lt;/span&gt;&lt;/p&gt;&lt;p class=&quot;MsoNormal&quot;&gt;&lt;/p&gt;&lt;p class=&quot;MsoNormal&quot;&gt;&lt;/p&gt;&lt;/div&gt;&lt;p&gt;&lt;/p&gt;" style="rounded=0;whiteSpace=wrap;html=1;fillColor=#eeeeee;strokeColor=#36393d;align=left;fontSize=11;" vertex="1" parent="1">
          <mxGeometry x="1080" y="420" width="230" height="200" as="geometry" />
        </mxCell>
        <mxCell id="6sOeRgY5XGvY_d-i2xNn-9" value="&lt;p class=&quot;MsoNormal&quot;&gt;&lt;/p&gt;&lt;div&gt;&lt;p style=&quot;text-align: center;&quot; class=&quot;MsoNormal&quot;&gt;&lt;b&gt;PDO (PHP Data Objects):&lt;/b&gt;&lt;/p&gt;&lt;p class=&quot;MsoNormal&quot;&gt;Extensión de PHP que proporciona una interfaz uniforme para acceder a diferentes bases de datos.&lt;/p&gt;&lt;p class=&quot;MsoNormal&quot;&gt;&lt;span style=&quot;background-color: initial;&quot;&gt;Uso: En aplicaciones web PHP.&lt;/span&gt;&lt;/p&gt;&lt;p class=&quot;MsoNormal&quot;&gt;Lenguajes: PHP.&lt;/p&gt;&lt;p class=&quot;MsoNormal&quot;&gt;&lt;span style=&quot;background-color: initial;&quot;&gt;Puede&amp;nbsp;&lt;/span&gt;&lt;span style=&quot;background-color: initial;&quot;&gt;conectarse a diversas bases de datos como MySQL, PostgreSQL, SQLite, y más.&lt;/span&gt;&lt;/p&gt;&lt;p class=&quot;MsoNormal&quot;&gt;&lt;/p&gt;&lt;p class=&quot;MsoNormal&quot;&gt;&lt;/p&gt;&lt;/div&gt;&lt;p&gt;&lt;/p&gt;" style="rounded=0;whiteSpace=wrap;html=1;fillColor=#eeeeee;strokeColor=#36393d;align=left;fontSize=11;" vertex="1" parent="1">
          <mxGeometry x="1080" y="650" width="230" height="160" as="geometry" />
        </mxCell>
        <mxCell id="6sOeRgY5XGvY_d-i2xNn-10" value="&lt;p class=&quot;MsoNormal&quot;&gt;&lt;/p&gt;&lt;div&gt;&lt;p style=&quot;text-align: center;&quot; class=&quot;MsoNormal&quot;&gt;&lt;b&gt;.NET:&lt;/b&gt;&lt;/p&gt;&lt;p class=&quot;MsoNormal&quot;&gt;&lt;span style=&quot;background-color: initial;&quot;&gt;Framework de desarrollo de Microsoft.&lt;/span&gt;&lt;/p&gt;&lt;p class=&quot;MsoNormal&quot;&gt;&lt;span style=&quot;background-color: initial;&quot;&gt;Uso: Puede conectarse a diversas fuentes de datos a través&amp;nbsp;&lt;/span&gt;&lt;span style=&quot;background-color: initial;&quot;&gt;de sus librerías.&lt;/span&gt;&lt;/p&gt;&lt;p class=&quot;MsoNormal&quot;&gt;Lenguajes: Principalmente con aplicaciones desarrolladas en el framework .NET, como C# y VB.NET.&lt;/p&gt;&lt;p class=&quot;MsoNormal&quot;&gt;&lt;span style=&quot;background-color: initial;&quot;&gt;Puede conectarse a una variedad de bases de datos, incluyendo SQL Server, MySQL, Oracle, y otros.&lt;/span&gt;&lt;/p&gt;&lt;p class=&quot;MsoNormal&quot;&gt;&lt;/p&gt;&lt;p class=&quot;MsoNormal&quot;&gt;&lt;/p&gt;&lt;p class=&quot;MsoNormal&quot;&gt;&lt;/p&gt;&lt;/div&gt;&lt;p&gt;&lt;/p&gt;" style="rounded=0;whiteSpace=wrap;html=1;fillColor=#eeeeee;strokeColor=#36393d;align=left;fontSize=11;" vertex="1" parent="1">
          <mxGeometry x="940" y="840" width="230" height="190" as="geometry" />
        </mxCell>
        <mxCell id="6sOeRgY5XGvY_d-i2xNn-11" value="&lt;p class=&quot;MsoNormal&quot;&gt;&lt;/p&gt;&lt;div&gt;&lt;p style=&quot;text-align: center;&quot; class=&quot;MsoNormal&quot;&gt;&lt;b&gt;OLE DB (Object Linking and Embedding Database):&lt;/b&gt;&lt;/p&gt;&lt;p class=&quot;MsoNormal&quot;&gt;&lt;span style=&quot;background-color: initial;&quot;&gt;Estándar de Microsoft para acceder a diferentes fuentes de datos.&lt;/span&gt;&lt;/p&gt;&lt;p class=&quot;MsoNormal&quot;&gt;&lt;/p&gt;&lt;p class=&quot;MsoNormal&quot;&gt;Uso: Históricamente utilizado en entornos Windows.&lt;/p&gt;&lt;p class=&quot;MsoNormal&quot;&gt;Lenguajes: Principalmente con entornos Windows, como Visual C++.&lt;/p&gt;&lt;p class=&quot;MsoNormal&quot;&gt;&lt;span style=&quot;background-color: initial;&quot;&gt;Puede&amp;nbsp;&lt;/span&gt;&lt;span style=&quot;background-color: initial;&quot;&gt;conectarse a bases de datos compatibles con OLE DB, incluyendo SQL Server,&amp;nbsp;&lt;/span&gt;&lt;span style=&quot;background-color: initial;&quot;&gt;Oracle, Access, entre otros.&lt;/span&gt;&lt;/p&gt;&lt;p class=&quot;MsoNormal&quot;&gt;&lt;/p&gt;&lt;p class=&quot;MsoNormal&quot;&gt;&lt;/p&gt;&lt;p class=&quot;MsoNormal&quot;&gt;&lt;/p&gt;&lt;/div&gt;&lt;p&gt;&lt;/p&gt;" style="rounded=0;whiteSpace=wrap;html=1;fillColor=#eeeeee;strokeColor=#36393d;align=left;fontSize=11;" vertex="1" parent="1">
          <mxGeometry x="655" y="830" width="230" height="200" as="geometry" />
        </mxCell>
        <mxCell id="6sOeRgY5XGvY_d-i2xNn-25" value="" style="shape=image;verticalLabelPosition=bottom;labelBackgroundColor=default;verticalAlign=top;aspect=fixed;imageAspect=0;image=https://cdn-icons-png.flaticon.com/512/8687/8687503.png;" vertex="1" parent="1">
          <mxGeometry x="470" y="420" width="102" height="102" as="geometry" />
        </mxCell>
        <mxCell id="6sOeRgY5XGvY_d-i2xNn-26" value="" style="shape=image;verticalLabelPosition=bottom;labelBackgroundColor=default;verticalAlign=top;aspect=fixed;imageAspect=0;image=data:image/png,iVBORw0KGgoAAAANSUhEUgAAAQoAAAEKCAYAAADqyxvJAAAAAXNSR0IArs4c6QAAIABJREFUeF7svQmYZVdZLvzu+UxV1TV1VXWnu9PdSQiEkIFBoyjDTdIkCAleAQeuCP5X/ut/8aqPE2AgQWRSr3IVvcCv/s9VH6+iGVC4CIgEMIEAMmYgIVN39dxdc51z9rT2/7zfWvucU9M51V1VXd3l2Tyhu6v2+K21vvUN7/d+FrpHVwJdCXQl0EECVldCXQl0JdCVQCcJdBVFJwl1f9+VQFcC6CqK7iToSqArgY4S6CqKjiLqntCVQFcCXUXRnQNdCXQl0FECXUXRUUTdE7oS6Eqgqyi6c6Arga4EOkqgqyg6iqh7QlcCXQl0FUV3DnQl0JVARwl0FUVHEXVP6EqgK4GuoujOga4EuhLoKIGuougoou4JXQl0JdBVFN050JVAVwIdJdBVFB1F1D2hK4GuBLqKojsHuhLoSqCjBLqKoqOIuid0JdCVQFdRdOdAVwJdCXSUQFdRdBRR94SuBLoS6CqK7hzoSqArgY4S6CqKjiLqntCVQFcCXUXRnQNdCXQl0FECXUXRUUTdE7oS6Eqgqyi6c6Arga4EOkqgqyg6iqh7QlcCXQl0FUV3DnQl0JVARwl0FUVHEXVP6EqgK4GuoujOga4EuhLoKIGuougoou4JXQl0JdBVFN050JVAVwIdJdBVFO1ElGXW3wI2AAfjcBDACSxYszYs34LlTcPybFhVGxZ6Addqtmj05vTfaxYs/ny+XnVcG1ZfuTRXm62WKz0l9/T0fNRTKM/WLJThwYdCWldQhTKyZBZZoYIMMwDvzT+TDFmpB1mcIVvptdv9zjPv582Yd+44PcwJ/LZZ/Y2tB99H3g9ASSGLe5vvtdJ7VDJkcylUND1h7xwasGcSpLcMW7PfyTL/qYMoV5NJFcSpSipDfV4Jdl0h5f0dvnsNSAvIggxZFYAPZGmGTN7DHOUyEFZhlUtAvdYcj0JRn5P/LP/3fFXL1VVQbgrlV6CqCiroh5o+DlWIoXAR0mFAnQSyVwPKsqwV5b9akV5o521pRXH7d06MPvL0sZc+MlG/Zs7vuTK0/X1zmbUtyyw/g+VlsO1MS8AG9N+U/BXQU0z/X8a/WPIXS5/F/zerLjN3yEc+46SOzL+oYyzF29lIrSyJs55yKRrp63Gqx4655b7+JMyc5OjUlJ86npPaDlLoWd94qLmTmZktE9TKLGvR8GVLz1quu+yCN5aP63SYK8yJi1eJlS2zcFpOyqwsQ5bBke9SsDOlHAcqqYe2bVlq764d9UoSeicnTjl9wyPZ6bl6NjE3V1COa1FLKF5u8Wr+p4+l77DcNyw5q9OHArYl7yojwD9FKeQjIn/L7AywszRzsyT1sjQqZElccuwjSOLHAwePXDNUuPemyy/5/Gt2WbXOD7wwzug8Ry6M75C3vP3BQwOfeOB7r6n2jl53MilcX7d7RmPl2qllQdmZTDhZFrYNlVlmPuQiyCfVKkTCU9rtKVbSqijk7xZSuFBAmqDs2RiwbYQqw3ycIqQa4X+iozJQAfBsZFQ0G3R0+ob1fCwVmugaalolcnAtQCWx/Nu3FPoRYeSiMRybqWKiFiPMqFodLeeM45ffYz1f7MzvZSGBhZgKBJZlyxziKNmZgsPvUwqOlcCJ49ltDh7rt8L79pbiTzsvv+LjH7VE712QxypWxfn/XQc+9tVrT8J93dHZnp+ds4q9cVBCPU1h2w4csx8ktgXLsWCrCKniN9ky2FpbtO5TLf7Dok9fjb0py0EMDv5NL3T9M+6kqZ5MdoaUykpZyCzt2WjFk8Hm+8hOpqDM6DQHaeEbLH2fptJb6StW+obVToSz2KPNN2pZc0FRDdppipLvIwrr8OwMO7eVMZ/EODlfQ2j7ULYPKG1BaHtF5X9ZUUcv/Ia2mnypRbLaac7x4ibDh8kYU1NQ63FSZfpPxwaUDU/ZsFUMH3MYs2tf3hbN/PHzRyof/+D1zzy92sedL+etdn6cL++74D1e+emnrnl6zv7Ng2H6o5HjIbbLSOBwSulBEyWw2FJYbgIttioWfe5iKeWKIFN6kiwx+fNntFoEGSwqCXNrbUrnB62b3G0wf2rfo/H6+tpMz0kqHMdBrLSbZNkOMk5QmbiqRfmdo+FttXwsKoLckcu/r0Upy7qiG8KgRohKMUBYq6FQLKKexGa/pkwdfpi5EeXIUdUju7qDlpmWJa0WisaCLbMh5fiJP5graKOImj5nm0e0yHRF8YoW0fewOW4pvDRGKY1QytLJPWXv7ReriY/+9S1XHl/dt2z+WedoJq3vhx742/sGjtT9PzvkDdwS2UVkjgeJW1lu80ELLIU1Pn9RLEAWAhcmV23r0aqX1vjIBYEDcZWpTFIUfA8qixBV67CCkjFE+O1cVK0vwEW1ga7Lgu9eqGgbsRPLqGzx+PL34/q04WQ002NkYvlZ2i206IJZyKj4GoGUDkp8gZxb/alcqUjUCYWggDAM5WwqaVFnC/aMPBSx1oEz3ypKQp4G8Bup5CUCZsFOJjBgzdUvK/a8efgVl/z5heCSXHCK4s3/Ov7yv3ny5D2nvEEns8qyE1u2C9geMuSxgbUM9jITsyXgJ95KmsDxPaRJoudawzrQ1zJ2t9ZD39fcRXZABd9zkdSrsD0Xvu+jVquJArEcTyze1iBlHoJbRaRyra9qXINFtzFKovFTxYCkDgGLEqAvL6kM/ukgSRJYlovUWGlcVq0h0gXyWPGNF8o/o4tDFy9N4boOSoGWWZJmsBxXZCYK2LgQIrN1WBFL76OtLChtFWYSfkoQKIWhyaNTl1r9Y597w976mgdiA2+wDmLZwLdrufVPf3l88HMPHr4rHdj3wiM1y6KgLUtBYul2EUhdwNI7xpoO0QRmJ2i9kbEquCt4fJTtoh4zu9FImOiVvdy1Z/NCrSNjAoG0GFzfQVqrwy34KHgOavU6Etk8jVVxrqyIlb5JFIRohEZsgYrTc2woiwqBY2Z8epcrxvj1ub+fW29npWsXKXkZywSW44jl4js2PMdCrDLECeOKDiRh03CdWi2Ssxk0c83ibJQoiVSUE2NVFjWFsmAz6K1iDFv1+gv68faPHdj1O2t46oZeekEoilf/07eee9+U+odj3o4xO/Qkgx4zSmlTMZjFCm8DsgTafBULIR98laBSLKAWhZI54bTXFoVJq67bcJmYw5ItTvvejL4XXE92qnoUw7IZB7Blt9TbV2sMZN1eaoUbtcQOREHQvNGn0q1gALMQBKiFoWRzMiaMGfATxdqiEXI500psMSd05KXF71/151CGEkmW8bNVAs+2tTUWRWLZMMvEcWy4acst8lU/Lz9xUSylEdzOv9WVPLunInFH6paNspNgX3zy4//1Rc96zZt2WISJnFfHea8oDtz5rVserPn/67g/2CshMItIA6alfINyiJFRM8tsYoxi/T6J04gmv84gKNiWhVKxiKheR6xSmXz0qfUz1zseII69niwtyoIZE432YDAwliAg/V4uwjz1K+/EXXL9RNFh0uYLQP8pmRtJCmjXolIqolatSbZJ3s3xTPBWy3XxoeO4+h75pzfDwGeyfhaaJbynQ5fHtREEBcxXq7LDM7YlTsG6KAl568ZLahtl0UDwA2mVxiGszEbmuHBVigHfxvDUsa/dcs2+V/32laVDZ/KlG33uOZtKZ/MhL73ryz/xhDX4wfGwr9+yA6RZDYqWBNPRyoKVBaIwONkchCBeYj1XBy0JiVfKDg4UCwVUa3XZhWQ3ag1mrodzu0BIeWDS7LyNFEj+cwVbKbEkPNeF49io1+p62Vk0qddbcbUZwYbFnmcZ9EKnoigWGUSsI45iOC4DsVz8rdNuadC1YUwsjjeezSQSeTQvpFLNVALH5rsVUa+HSJJUy2u9FEWLB7RsrEhwNtzcCiZuEcEvelBRhEI9wZClxl/Qn97yNy+79N/O9pPX+7rzVlG8+O5vv/ahKv7Xabff31buw+zsPCLXEcFqITPr4AHKk7+6WQxiJda+Xs2sN6A8rSwslEoFzM/NwXJdExMwC1EkaCLmJuffeWdajQO+gqJoZDYk3AdLcvYKrmdLUDCsR6IsstzvPhcj3Ijr6LgEd2kuxHK5jOp8FanSmJY0TXVKUty1fOclCCtXHlT++RRvGcvcfegw+/Nrl8yBhgKwmBsVTzFTKRzLEjckjmMkgoNYJyusJc6i38lgzBtjoeM4dD/8DCiWC5ipVWFbKUMZsGwfo/Hx4wf63Rf92U2Xf3e9F/3Z3O9cTKMzfq+b7nzsRV+pWp+cCHoLlm3BSeroLZYFsceZpLgIqCTk7SOmIWDThDsbW7uxGxrkn+xiOeaBIG8bpUIB9bq2JCQIxme37lQ0X82hb9dpNz+TPKqxkhbs2nkAgIqTLhEtHGZFPNkU4zhppBvpgmS5eW9Gez0qFZpZCPN+5pVoSbi2hcDIjMrB2Bk6RbroOxouRg6Jb0hSYx6acmYQcHVTabHDkQdXG9iJNBbwnaBEHVcsMj2+RmHl2Q+5kcZwaNG1uINtXqUx/sacYLxFg4K1rHK711ExyqUezM5WETg+wjSRjIhyYthIsG/+9OFXP/uSa95zbc/J1X35xp113imK133yobF7T5UfO+L2lFOHlkMs4BsvzdDfX8HE5IzgJgQ0Y4ZPT7bV4QaW++CF5Ro0mSFR+iSJUCmXUa+FiDnhZTc8fw6ayxI4FEnoP31aXQDiMIQS35uL0yimXFHIGbyWu/YqV9+iz15wVUY4s+SNBXlarpQwV61BKYZ6bf278+DINxI9X/RmoCWRoVAoIGQGSQKfGo8j58t3UVHwP24VuSu48gc15aoMcp2Bd0esGcd2YaUxfCeDGxQwU63BZnrbxGW0p5shtRScVOGS+NjDP/GfrnnO7VajLmBTJHl+jKD59F+671Dxrm89cXRy6Bl9swxD0JpIOVgOUieFm8QYGhrCydMTLOFrCdjpIV+Pj8kRkIzM9/b2YH5+DkowAIKL1LiN82bi0/loKgpOMMYqOMUb72x2Rb1btiI9V79DdpqZFmMixCp4Doq+h2qtKqa8LACDGF2Psen0Hp1+v1hRiAJgNoQjm2dDwlDGmK6boGe1L9ViVTQ3qJWfp2fjAquLQVRmpljnAguB76IaRTpzlmeBjEfGeDXjXy7qKMUxvt+b+etPvvqqn+z0fRv5+/Nh/Brfd91fff3er9vbfzgu+EizRLARbsJMB4uCWGxD7ZGKsjh1+rQJDeh6idbd9ewFxloEgnNc2WFmZ2fF788DcDqNxul2vogthzZrJalN3AxZHMF2XQSBJ/53KkUjLMXKa1D07ijBnXUoPCNKlb5+4Doa0MQYhesjTRPJcAiG4OwHZR2vzN8id4aoUDUoi5YZx9rzPERRhITgKEFwmh1oVVW25lWNXCVAasByepvhszJBidbqoYxHM72ur82R+xxRR1yQEoLoFF45Yl39ly/d9811FMYZ3er8GD8AB+5+6PqvzBU+PeH1aeCUyyCdLwkO5uGpLDKpI1AC/+3rqWB6dgaKSkKAM00zfCUJNDV8c1Aa55oaBVb/9fSUMTc3p0G3xreUWgwTGT9La/2MBuZsTrZUIpaPpCWZcQhsyTYkDLJbnuSGtMdGsJHZJc9SUbROHFaC5khR6iTbdgW1Co+FXbpY6ryZaK2CZaBaYsHasmCcR3AWgYcwjDWcXLAWzfgCrYvcZVlxngnojEpCANsSgHcdKvEElbKP2bmqnrMMvou1wphbS4rHeIoF20c9rQO+g4vj8ekbB3r2fPiG/dNnMzfWes15MX7ve+Rkz0e+OfG98bRve92nwCI4aVEbaVYEumcp/UYRvPAZCI6gUqlgdr4qC8DgAdvKo1VR5Itd0J2KJjtD4RlKhQD1sIaUjChiqbRWg7YE7Ncq+Q24npOOGZocm2BlEYKgKGZ0nCiWHGifW+K2tCa4FM4i7iILzJYsRuB58F0bUZwgTmLAZlxEH40Urfj45++h300rNNl2iOD0NEBMByF1pW8ehewE0Sd0XBa/suDYjnFvUqOA5iS+loElB9x8jKJYIB4qGQVLucicUFh7SojwfenUe/7l1Ve+dTMkeV6M3w/+zTfe+bVs6LaE5jFphjh9kwL8xELq1hEJdoIRfscElbRfTsObymJ+fl5MxWbNxfKi1DggvZA0GIhKgAE4S4wF5tWrAsLRSkK7GnyQ1vbnhbDOYJZYKpLdLCgWhTshrIc61mIwFjq70+mrDLpRVr5GOUr9RJLAcz2xJKIwRMK8nu1KtuV8ieGcgahy1SabED+UG0cQBGJZEnrN2aYL1/K8xcp3FyCmmS+0UCmrSl8PqvNzUhCXiNIxaWKjLJq1LTpjlvEcJ4GVMYieCQh5RM2nY+mx7/u3n/mhr535t63tik6zZG13X8XVP/vJ713y8RPJt467g0UKhiCi1C3oIqgkQUruBlPfv+B2lsYR0P/tKRcxX52XEvPOCMk8zqB9emErsiAxCSoc2T0Ml4SOeucBQGMPruKbNu2UHA6d16WYTAQXd6HgizERhiaApulWVlG6vVBR5KE8x7JFZoxJ0LKQOgbRI61xEL3otOPRKWW8aVJbNK3090rq1LVl85ifZ3A2L+dvgfOv+MrG8hXLgkHxXszMzBh7he5GDu4y2boGACQfk/zGkcxHN6VyJ/S9hmc7pz/xrdde9fJzLa1NVxTP+qv7P/CEc+kvhLDgZawF8JE6BcCa17UcqQ9LEX1J9Jwx6XJgjBTY0CKgsihjqhq2eMPLfJoJ/RMGLVNXdj9aEgXUSJ7IbAEVBStRF+b/tJ+dMd21nKl4rodthefJjmdcCTGcGKsgm5RCktRRKhepfxHFSnY1yVZ05HjI6yX0M3VmxUGRAblarcX6MuADiezrdK3szsS96D36PBHScq+RKzGTNqVrm2NTXA+u56HOACcV4oIS+OU/iZgeBoodO0Pg26jRSm2kquly5Ao6z6bkk03HNWSO2QoW06mC5fOFItFxU2yvHgufv82/6mO3nFsg1qYqijc/lgV/9cBDJyad7ULbysoJPaEoLEbgdJqJePhWtE3rGpYdzmAJtg/04uTpKUErCtKO5efaIW+4DvQfyWIpIM9Uocw6BGIOJGrJlGwLL2NOFXm+Ri9X0hd5qjjPhzJQK0E4CCiLB7kZKCfhZqO2FEi8xjxI/ELi8TnOwJX0J5GMPNX3PdTDukm3av6IlY88erSpU62jkmrOqdyEpLz0u9PiJHxfL3hLNhP98RoVq4FclA0Dltzq9BGwrL0e6Wsk+pFX+Ob3Xv61tIecW3KEBbBGxUXkBgiyGeyrH//wQz/zgjd1/Kh1PGFTR+8/3vXN//aJ+eIf1NxtDfbas/42LoQkxujodhw7ddL4y9Q1ObuS2Q3JncmUmAWUSiVtOkvUW5OmXLj+9TKSaygK/e3CjhWGcAK6IZakTkVjGteAfrF8v1EU2oJgbYQOkjIER3eDKEYeon8lcr+p0+isp8xyFzZ3e20VMfVLuUnK3A9QFT4L1tiwZNxA6GWHoVqlMs1gpwlK5Qrm5ubFApFkdIP3Ind9F5isS14lD6IyQ+WwNiVxEPtFONY8RmeOzF/X80TfR1/zmnPGwbmpI3z5n37lvqcqI9dFdkFM4jUdNIltJamugW0DmJqabkKRTC0CpzrdFP6TE77KmIRYL9pkF/6hC8x6aCuzRYpCApEWkEQRXN/TwVu6D+KAcCo03RYBnrEanGtAMAVaZlSs/IckCU16bysp14WKIpOaEJfEOnEMz/cQuCS/qYsFIZYFZWFYuixNxopSiUFxTSok7Bvy58Lq1E4LT4NpXVJvCqeGk1lIGVS1IvRFs7gim/25+153zUfWtGbO4OJO73sGtzqzUz/0+MTut9839fBJt1CSIqoFHJJndi99tjb7OCj067b19WN6ctKYimJZ611VKZTKZc0OpYu1DUmZDsLlSMezeYPz7pp80zLWNJVEmsQCKqJVxToH37INV6VCxviCwVWImyxV9iQI0pWWdFfE+mJqVMwNTW93ngBV10X8S9xauhOJBuExaOtZtrhvtTgUYJnm1ZCQgsy7YqGIuXpdZMRNi2hMcWtbNqAGNLzNG9tioXhGGdHWNdYNLcAkwTPUxBcf/qln/dC6fPQqbrJpiuL6v7j/9vusi98R+gVkSU0o9NdaGi2+NeMPVAEqQ0+lgumZGRlMambbslHkIJO7wVQsGsraRunzllIUiydAvqglHqMthoLrimUQJpEu0zcrxSVuJc0k8u/5LJoKkaYKjuci5s7ZUsa+laywVt2ab0A6g6kVIpUBMz5uwcN8fR7KYtBWVzX3lHsQztcQUTkYS0IDtPLUur67jql3yAKJic1gs2Eit2JBDdMmzuwAA7VjM++64hlDb3oei6E2/tg0RXHJn3/jywf9sRdETgBP1XVPi07C6yCPPBEnloPQVqTo7evF7CyVhYNCIRCzMaUpLYPJQ/voeQBp0wSy8WPdmPe5NmDWh//RDWGVbkjWLonTsKpM4yWKpZLwXEipuOuI7LTrIfuo/D8zK1v+MGkwbkASmrRtBAUP9bgKlWQoFcuoVUPJJFHhLgjbNMyUFnulgxkmuSLyoCgijunikKA3gaNsxAhQSufwwsrsT37yVc/+63Mh+01bF4N/8d1T807PYGgV4YLIS02+uqbDjIN4hDlLkkrR11uBihNUSVJiSn0FEi45f8KtcozEanLka3rD8+5iQRkmCYJCIAHLWCj+MtgsvxYC3xCOYCQyk0nSg6QtaTNgWymu02GEZF6JlZDCtTP4gSuW6vw8wWysp7GXL59ZHLtsN9clJWoDTqQzdKmLRKgOYzi0NFRAQkHsCg/+1WNveN7rzsWkWuvSPKt3/NBD2dgvfuvJpzPleaFNlh/Tp62FQuxsbqz7A5pFb1ipHAuo+J74lrPVOuqS3jKprQaFPM1HfZ0EqLb80TLsZGVjUDKJETiOEM5ESYSgVEadaePMoQeiaxKE0StXqjqGwSNvVLR1xbZwmQilHlVCGqOnUpTPnqtGiDILthsgZVynWahrFGrrPZoyXF5mdAE9wK1LS4MgLqLOQKabgGhbWzlQysV+Z+Lr3/vxy649F3LfFEXx/3zmyC986GT9A4gtpB5BQAYn0XZnWhxmMuJZoKnpv+SVipplqURS19q8TOq+gX6cnpo2xV4mbSp+OW+isQYS0NsqxwLUWOtQt/ydwbGYO1UGz7KEpbpQKeH0xARs3zPALE9be1LgxUMLXeI5UhK9BWXW6ho0uE/0PCEYi9Ds3koZc7Mz4oYUSmXZiLScdFSieVlueTVl13aKyWOoKAjBT+ClJJOmokiBLAZIvQAHY/Gxw0dff9VF52K6boqiuP6jj/zZ5+ulN/BjE9vTPJgde2G0auGWidlCYJMT4LK/Jye9oAejELGpPmWAenSgFydOTiIR5ieady2oPEESbqVJnxdjLQ6ntUwtppWJRk1juJYltTNhVBPSnihNhJYtI3BNdAMjwgZk1CB+IVp168iMSF+9yA2cmoFbVjJLybwlJLhII/T2D2NiYhK2ZJDIlGWj5LvS9SxVdD90Wb8u/DL2hRTiGdmvUWZWlmAwOj136meu6tmyiuLK//nFf3mksvvFZK5SlofUWW0wbAWUX57SM+306G6QLbtOAhUOtHBpCq2qsAsNDw/j5OlJ2Qk1INPUdJwLiZ/DZ2gWcX7gSgvZoAbiGK7vi/VFMFWcMChnocBAZhRDSSWtbu4seVFRrjk13VZTFHouai6JHKyXGK+LmaJUWxLEUkh7BF1gqNJE+DgKni9ZtVjaJhCQxUK5vMmJ4QFZ0Fzy7CaEYyn01k/Fd77+ytJLzgH71aZYFJf88ecffKL34mcx8OMoD6lNDH2nXWmxX7eIbYppK9ZiZBnK5JOYn9PReXGtmctukruI2djXg+mZaRlsnSI1nBYdax/ObmA396o2iphdzzwPgecjrNa0S8EJ7rKtny65JoJT6kwpR+N0bO73nLunC6Rd6vM1JkJc2eo8bD+QAjvQJZDaEN1mkvEeya5JRa0OCucdyRa2Jug039t/I7Mivels9vPX7rnsvVcUvrfREtkURbH3w1946unynj1UFF6iFUUn5upm7X6LSHLIsQkX0dij6Tw9z5p/E3wzdR40HaQ82nBZMHjJQBQrRslnkUqBlLY6tsrRTExok3fpYGtFQJBQowqUilNMaQYxM5QCT5iqImmfSECa6WUiNzPp0a0jshY3SsesRAmwiRGYAi0KLFvPVVpYtBYM6Y0hOZbicRaDFXxUa+Sz0LVGonC0Ftb/XuMk43oop/P48b091//pD4/+8xpv1/Hytb5vxwcsd8LuP73v0Hhh10VsMefHDlI7NpmI1d9OdjuCtITAldawjR42dalrKjYlFophpZKCJ31vwrU1S5YmvyEoa2aO1xik4aZIZPXffSZn5lCfHEQmfJ+mexcZqByh/KO7waK4vDO7zgg1iH2ySLp8ccus12qwXU/MbbmTdAPvzPh0Ju+82ec2uswLqpJlLwYz4Xuo1apS49HscLvYKshdC1rILMAriDWmY8C6ETOtMjMT1/SplHoxi3HTdvXjdx7Y+zdrutkqLt6UZbH7T+8fHw927VSOjSCyETt6t+p8NJNO8rccWCWl4oxJ6DoEbSjmkeacRbk5PHo/yFOiQLlUQrXOkum881fnN7kwzsiDmLnDoDk1JWZOPomij3ot0lBkqRgzO15LTINFTtK302e5tSN9OmQnFQFwn91qikIrSYlnsfeHIbBh7EZYxRvFXfkMyBd+MyMkIUzTb5XkN4S+k2GMboiA/fLg5homEaUeqBg3DCZv/MeX7//zNdxqVZeuZnWu6kZnctLuD98/fri4a2fqWggiB5EbC5lHu5fJ2al03019CDMVsgYzlXY3msxUYuAJarBpdzf6K5jJIE10LIVKIdBMWdKzY1PEciYiXOW5SxUFS+t91xWgUBLFiGlKEeIurF7N2woakJKd8lbjAAAgAElEQVQTdm2SpiRSI0J5CfmsyRARibhcW8BVvuB5dxp3fBaCcTEz2UGLa65qqmVNn6dORXC6esgSa4QpeolZEAJvKA+0C7JGfy0DfBXjJYPqTZ/8kX0f3mhBbsqK2POh+w8fLly0I/EsuJGNxEs6s0FLLFPX/GvjWFsUdB3Ili2+cwtZqXjTMvn1f43eFmYn1Hdo9mxwsxTb+io4Nc1qykViWQy37SS1M0HhbeQIN1LHZv83wUmyXdVN3w1aB1LoxY7frfGZHOVKVCazIlQWLIpi+0I2zIlYICb+2gJF3PFzFsNhlsjK3LPx88Vo2fyZLYgmWXQtg7Lon0vCTiuNnzxKzwlNzuPJ5qHdER0Y11FLE1hffB/JbhhqAyoJ+b0u0ZdK3VCXDzQ+rdM8aifMDAiSCC8dsX7+/9y89086yn2NJ6zlVc/60bs/8pXDh4PhHexs3dSsK72K2RX5h/BGSH9XqegjWzYbqAgce1Vvs3gG5Rfpq3mX0aF+nDhx0jTPMVWt2s8xDFf6zE4HAUwSPyFvgVTH5m0H82vXg0qgw3vknhpdNHE3mBHqwewcA7i6rV5n3EieIjSWmVLo6+tDmkSYYzsD39ftAPJO5MsJxhD6sjJPb6Q04Y2pLpYLu3vzOSEym+/Edlk2fJVIcVVCmm+20CLGocFw7cNh0VoWIXRNFSeLs1KdnclsRhLY3oEIUtIbNlO62nIyXcskNqM70Qtlv7xbhkqZG9C8LqU3s0MHIvXib3tIarXVFdGNmUhkIxyckj3SpfqNZium54dGsK1ijrHsPwnxsgHrF+5+5b4/7DQf1/r7zjN+rU9Y5vrdH/na4cPB4A6ybDNCrNdQh1cxE5FnUVFIX8sq+1qqlubEq1MXK38SyW9CXLRjB44cP6VbAeRBzhbocnuR8GMS2NxOUiUZFdmFcqskZ0ZakobtNBSLv22Z9Npiy0fSevo66QVa1EQ9Man0Xc8s7sVb/OKva92pzeRPYwlqSg8Msj55gcYMUGE30Jut9yGikAVohtBYoPJ0E82CNZT25Aphh6y8UxdNd6EPEAYt3T5R62z+m8qFCpB1Qvw1v6MGh7MjYxl8I3qtr5UYjMZ+6O5pesGLJUUwFYvjpOVDIoVw87WqENyetaIwqNV8g2ArBVopQvxDDIZ0+dCtBoUERxSE/l6t3ztvAlpR2L909yv3/sEGLNMFt+w0Ozfk+WejKERBkAchSWRHmyIGQhQvfUoThFur38e+mQxzssnQ8CBOS5MhW0/ElmLhjjuKZAP0bi0OjvRGzQdftxYwjA7rIN/mEDJV1zzMdDNhmgqbLJMFmpyPbBhsovm6r0S7o3WK6MmsYtK7ZaIoGNmvx4kxKJafTgafKMhmnWJloDCT0n9tbXHXZw9ZD1ZGC4yGAFm9tRkvukMsBC50KgjW61DZaElqa8B4kpLSBLzMgcWFTn3Nc2mpiG4wLqdmhgF7GLAqlulzUv0FDPAycCnNjHX6s2FRrHa0cktOpg2foV0ZgrJc1xE+C+m3Ii4fe6BoBvNmHc1Klu/C4aWiuGmb9at33brvd1f7amd73iYpiq8eORwMjXW2KJqTmBsGyVorZDRm4x+mRk2OmiPJJdmYDGcrDZlIOirNhdzf24vpqSkwjZvmkN5OloW8pyvXcJLYaR1FiztIwj5RJm1LC7p98HZ1n9B++AQzYtvCCxrVOPmpvCB9VAmyShmJl0KvTkd+jh4PLjUWPjEwyjJ+IetN2BhZYwoWW+bSI0uyBeZ6ZUnZArEsZFnX7gZBXUXd9Als+JQYxWLD56Kl/GilKV8bIhb5M9jagaA99qbVRltCheIQJBUgywLE1CMOlVC++Eza3KBWtVdIoJSNgJB/kvNQeRBHImS6JqjbaYdfUYQ6RkHZ8560agLPFWBWGCdaWZBdLbd0GoH3Tu6Ndj1u2mb/xl237n1fpxFc6+9XM0vW+owl1+/+yFJFscTvl52BICnT+UplqBQLmA/rksduIASJkSBRDRU3aYbOYH9c7lThQTSUeSzA2UbrZZodybj4SZWnC89WPjTTFjtzkU1r1KnhldeMoZwoOGaHa/azbt5l8ca+2ItYzjVefI5mUmpKUuI5wsxk2JFyR4Q0biZN1+m5suiXzBLTaCjTXbaodBgPkI5k5mh4WoYpS37MdaI7LEhWQDjApQSV7ieDzgR52aYq1TT4FbZ07TkwFkLYvSRlpUWAxslw2OU/9ra3U9Qc4KSy8cmvnsSM78sztexpzWnznq39dHZDM5JQSbBaVmcmdMCxiXloxmtz/F6nedaQg+w9eSeyZiCe9gPdkDkyrUkPGa3LBDou2qvTXM5QSCPc3G//+p237H3/at/nbM/bJEXxtSOHg8GFFkWLAtXuowFUGXOaWAf6w5HSXcV10Q7P1NkNCVWt2fXQ/qvOoxNnoREZvb19mJmdM02BOnBWyLuESK0AfhbjkmwKv3zgagyGifRn4CSndbFcV+yVBmPZvaXVvM1H31hDOVaCZDSyDIVsJcdIiNffSFYs1gKrfYfW8LFwMVGJSvcw+vvNOig+X1db6noJadTkF5HQoiJtIQlxkJEnBwEtC5UgFq5IKh/tU5DUSKUWAiGuZ7FaBPglqaHgtXw+78Lya9eaRc1z8Vjm4vc/9RhO+z2CurVTX2NIpBUqe3oa4B2xPIZ3gwuUBeJNGbTGZ1YU2ZK1t3zUp/lTjfhM4dmuZENmmVmR4dFuqWxWeQ3/CiubY8isx48M2m/5+1fufe/ZKoDVXrd5isIfHKN5rikk8kivnsxCDGKox6hcS4QYS2rJaFkyGy8o/c0DQKv97HbnaZE0OJxkBJXQtRPQRQXFep8Fx6Kt3UsTxE4RbpbgMnUCv37jczAY1iWyT/ObATiJ4q/zoa0D7paOWGJ0DyQGIT/XilWjj00GQ05fQ82BUcx5aETaMpoYT/4ufATJgoSdOrMQWz6+OzGHSdtGbDvwFcS14E7/rP4CylYdk1YRj07UkcjmqpBIQZ+FHY6DfZUMkbLwnVMhqp4PW3rGZnJOOc1w7ZAvAemHrQDv/pdHMBX06G9kfxgJTofa3WLAmbBsBi5Z48K5SE6YJanwDVgiDJy6FpI4EUwLQVnS3FnYvXUpQUechcX0aEiL4jfvunXfb6/zVFpyuw2QQudX3v2Rrx0Z9/rFojBRPjqSZgLrYJdMa0vj66vE1zuEwJoJL2aatiZ0pMsEptahG5XuK2lSV4a+XyZjlmKofxtOnj6NVHa7lVQ9m7awu1lZJuMz0mN4241XYqheN2Sp/L7QKEStkhpHAxfWjAnIJy8YJZOHNxZFrtb0adps5oKlFSEd4akL5Md6sWkjjIpCdzJvvV6fnD9u5XdYgLcwajXvxylsWMQKSIGetiximvf8i7Ix5wf4yL8+iAeqMeb8igx/KU5RSSK8+Qf3Yl+Pg29MR/jI/YdRc2kxxFBZQTISLxzx8Nrn7MR87OD9n/g6jpeGpDetw7Z7mYtdQYy3vfgZGApTfDtWePcXHsNkgV3n6C4y9sFvijUWJ1PY1tcjHbzYC5QEPbSIVqTw6DytO5+RbzAydvS/xFSSGAZh8lHMhtJGaIsV1uK7s79KEuHlA+5v3nXrxVtTUez58FePHBaLgizDeT5dS8KwAEBlqRR4sekK9UAspDKUcO4aaAboBqDKTNjOo9X+jIWKgi6w5iJgHC1TMcZGRnHk5Olm8+KGnd1yX0bwbaMo1En85oErMRzWoDJfdj7YsQTg2h30uRtIycVuhokXtuoPWg6MF2iGbV1F24gTNOyj/AqGAPPjzPeKXC3nd2j9EnE1ZMExBqC1Dq0JuhQkKJpyCvif938X/xo6iNm5PgU8FaGcVvFr1+3CMysu7p+s44NfOYX5gClcun8FYXo6sD3DG58zhlMh8O5/fgTjwYj056RCtpSD0cIcfueH9mOkpvAdleH2ex/DtF/Rm5BYEakocS7MUjHANHEgVKo0+fmubCjcEPo6UDMuHuD83maPk2CNVKU6Mr8YJ2EhGQ9BGbdVFnQ9Qtw84L7jrlv3vnOt877T9Wc+SzrdcRW/3/3hB44cLQyNMSrNqLetCEDR9GE28fU2hRYgZAqJKXhOPMmhreLmG3wKA5Qjw/04fvK0pGptV/eFapqs2my0CQaCwt5sFm878EyM1OegMhcxkZB2Aq9d1sMEACkPnVLURlP++ZKuFXEQLajrCrg4JShmsAe5R71i7Hy5GMdZyK4xgRZUp+oANAv16C4GiULdriPzXVStCj54/6P4XN1H5lTgJCFg11CJQ/zq9+/Hs3p83D85iw9/5Tjm3bJsBClTh2mCV/S7eP1zhnEEFt71ia9htrAbMXtuOFW4qcKgHeJPXrgPhTTGt10P7/zs46g6PXCTAIk3jyytwXOK8ANdrGXacLQA9nTP0I0+mulW7WLnKOPGvK9VEedcGC3KohU6TmetGIc4MOzffvcr9tyx0e+8aYriSDC4UFHQZ5R8Otv86W5UAne1PQ2oEo2/0eJYxf2ZSrMgjWcJHU+YumvwcPJ6Wd5mYSvsy+bwmzc+CyO1OYlLsFdD6tBcXox5aH22rnbVTphRFIZen26D/Ix+u4EDk29DSujFkjD3MYVHCxXFoojxEi3SaTosjjgvdqVzR4ZZFSWdzvknlUXVU4itDHWU8P8+8AS+OM+dvCy8k4qKIqrijh98Bi4LMtw7XcMff/0kQqtX3IrYYQYkwiu2FfBfrh7DwTTDbf/0NUwHF0mWIrNjBGmGnXaM37tuD8pOhm9A4Y7PP4pZrwI7KUq623YVfBMPkDEzO/wCJX8OFIUeIaOpjaKQHxFvQ1o9acwUCSq1MaBLrIsMRQKuhux33vXK/e9Yxcxd0ymdZsaabr7SxbQoFisKEZJDjksCXqq6pWOjw1Jr9+cNeaVV31TSeKluouN5AULGHhYoChlxneKzFPapObz9hiswEs7BSgnEIuCJaMJ2os9/19z2c2s1B+VIVzMxo20xnxOTbWh8iOlSteoPW8OJiwP0OsrTzNM6qS2Zi4il6q6LD937EL4S2QitssC0EzeEH9fwtusux6WlDA+Edfzh/ccQZ30IVILQjeWcm7eV8Z+fswfjqcJvffarmPCGYTGTxLZ7AAbcEO996TNRiVI8mij89r0PYSKgC1iSRtcMImeIdAxKNh6deVkSwFyDLM740hZFIaNN94ggLMZN2kLFMxTiOl425P7W3bfse/sZP/cMLzhPFIXOqZfLJczPz8rgpaY6sYGJJwiqI4rwDL/+rE43GRZTrk2NL1DvFkkSTMTyA+UoXJzN4bYbn4XBaEbDuQWAnqdHl75AfhsqElEOjUymgT3nHc+kQM4oiYTBvLx8Wd9TXJIlYKoVHZHcDOkgkbO5PoOfahIc0grUYePeJ4/je7GFxPKFg1LZMTyV4pa927EzsPBYmODTT00hRQmuUoidFImV4qqyjx8e24YpZLj7oadQ9foMQpqxBwsVO8JrrxyFHSo8lVp492cfxUQhgCLTe1oQ0BYh2tqa0O4ap1Qri3iHrORZzZjFF2mL0PzUGMoM/vJg/ETGblEf3MXjyywRAVc3D/nvuvOWi29blxdrc5NNUxQMZjISzRgFA0gkw82FZRD+mulA3jBnBdp4/3F1Al8hU96QpvAcgVSGlyYzuP36K9AfzSC2fajUhcuK1hY3Si5b1NSEE0HKlJlSpD9NHuBAYwGIWWAMhE2NcnBQjihtfX+ZcItHeJEl0wrhFsXUxtLJv3ox7Du/pjH3Fyl0h7u4pWNQ9B9D20fNISDNgk/3iVklBhiTUCyM2PJQpcsp/T0pSW4jlpjapbQqaMu6U0IqLfc0o5STWvATByU1h8h18WBi492ffwqznqd7Ygg8nF/QCpZrCqcRZ+ykC1c3Qdqe1ZrJWgj9WX5eLXczxm6KacSisHffdeslb1uH12p7i01SFF8+Mu4NSIyCg8zRFm88z8vncNsFk3adom8bLVHRa76GClohLoumccf1z0EPQhyPCTEuwmFdgeBLDbinMT9yH583iWGlDPRmupGw68ItFyULQ+UhvSkNW1L7eo2WxdBiymr3wCjhBRnY5VfKwp8unjaLfrtI2QiS1ngi5FGWdC0VH4s+DRiMWIvYVHG67DUiMO4YMZG5ssi10iBMn0/3El1HEzvcfTPpoEW8Vglz0gLxceXgjs8cQtX1kTAzQlltpQYklkZmHhj23nvPK/e+ZaOn9SYpigcOj3v9O1oVRROyuimvtH5y5iRPmI4jeCbG5ck0fuPANairEB/41OdxXFUEdZgSIrgAIGG+26w5B6FkgAqWpp4LbQsJOSEIfU5t3WVc8BErbYEaXNUqTTF5F53fakFoH3kVW2obq0RUz6LfS8pR0eUyZpRN8z9t1HIQiMUgdmK5gqKku0GwGtvoCWyeGIcsQ2LzP0fiP56wX+eIDh389TCHH95dwCuuuAzjCXDHZw6i7hSROLGpHj0fouHrNNVyRTHove+eW/f+xjrddcXbbMqq3P3hBw4f8vp3sDValgMGGjZYvmAWTdhVzN+NFpbegJthxZWZnUw3WyvEM8Mq3nLj1Yhc4PZ7/hUnvO1I4C1t3t4EPchjnKyKgUIRY8OjeOLJpxB7DkKHqFDyNJCvQSGR3TQ/lvgYghlYeLQT4mqmQjtro831Fq0AajUW1zGzxX+zApW5CK0w3YyNo5kJ0cVjDNay+a+eFqzJYGEd71HQ6E9RIjo24SgXDGey0OqG7RFed8VuHFMJ3vIvTyG0KsisWDrXE3TWdMVWcGPPxTxrK2qjzBZkxZaZ2WTfUhFuHHDe/7FX7f/1jZ77q5kd6/4Ou//kgcPj5KOwiJoj7p5mZl67se6P24QbSvssWFaMy9QUbrvhGjGhb/uHL+OoN4KUZeg2/fOUpVRQwsxFIJYDNyGiJMSebSX0+gGOHzuBkIFRP0BVqjA134JGUC6e1UuHM99DF6Mpha7NIDMT2vrSAR6wEwuJ/IVWQAjL9uS85a7Xjote2ESN6PIq/pDdrGrCsyCepZzTqmAXbwJUFHTLdPRWeCiY6nV0X08GhqFi7UI4HhQ7m3m6nQARlZp8x4KXZLhxGHjDc3bhSBjj9s8+icmgaDajrTS/tJilenTYe99dW9Wi2PXHXxKGK5rgJDAVtiNDN7YJq3oDHqlBZDSvL8km8Js3XC31Dm//2AM47I9A5XwVRNjYGdzQpOuKHnw2DE4TXH7xKA6PH8R8tY6de/ZjKoxxnLgNkv1IJDRD5iysYm2oiWViYks3Sl174Skg1CUaUqoNcku4jKDEUhMhOR4Zm+VZOJiJ8rJIl+JL61yWeLPDGHlCNNpRY7nbiDkPWli0I3R5uVY6Ntykjm2ejcFyL+aqVUzNz0i5dlQPUSmWMV9P4LCMXoLhKa4fcfCGq3bhaD3Buz7zJE4XCo04mIb8b8Bwb8otMwQxcRTu++750f1b0/XY9Uf3Hz5cHN6hGPSTkmy9N22Zg7timiuKSVEUzFrcdo9WFPThvcxCSOuADZQjnl9F5IbwaJZHMXb192Kwrw9xnGK2HuHElM6apDkPh1gXa7WTNbsYswuEw5K2QbHxjzBg2fBoSSi2UshHZjl1Y6wF8kBQ4SsHtvLhWJ5UhApMmSZB29J8Dj+rP2l7KJEVlZMbhxguOBgZrmDy6ASKxR4E5RLiNEFvuQdRLRFL5anxw0hc4jIUXjIW4PVX7cTRUOGdn34C035RI2XZ5k/YsrbMLBMI95ZWFHv+6P7DRwoDO2IrMKZqTli6RQZRzOdWi+IaWYy33fNlHGZ9guy7oZRbs6Zlr2NhWzKJwcEAo5UeqMTG+JFxqXXp7x/EwfGjiIgCIPxbdnfDPdm6QbbkQZvZjEUOQ55VaolrSAFeliJkX820gEfYQtAqIGHF7FwN+wcKcFRsrmhhMzc/kYrYrACbfJdWKO84nRZwKrIxH8dAgfGUpenfpbETzV7FOvDMSuGrKkYCG9sH+/HwwYMS/LWFfxQIyBDFLl2pQqVcxvaRETx58Gmh4XvxWAE/ffVOjEcW7vjM45j1SyJvN9Ul3GoVnCUXxCy0MvhxiJtGvPfec+v+rZn12PM/vnD4WHFgR2JxoTCGZSyLtki0C2L4jOIzFoWdux5UFNqiOBKMSkyCoCsaFEE8j//6vEvw3L4AlUqG2uQcCqoAp6eA2docAt8T2PHp2RAWSWiEfcugMlcRo2hKbTnrg9kCS4JiVY+YxQDvv/8xfG8qhiq4GK7N4babrkV/m8CavivjLdzdFaZ9H/9ycA53f/MJhMU+qJiWBuMXK1uM4uBkjNUEkuHwkjpGyxaGB3rw3YNHUfd7kVBBUmHRXaPlwcyIiDFCb7mI4YFBTIyP44XDPn7qmp14OrZwxz8bi4KqlajYragomB790S2qKL7/fz908MFZtSuEh8z2EUtASpJ3F5A2aPOqy1gUDNTddveXcbQwJo2ZZblbdfSrabzp8t24YW8fJqun4KQuKlYPgh4HM7NTUAnp2Fwox4HFLl1sjcgIvtBFrs2O1r3SbBSzWYRuinlrG977pcfx6DyL1xL0z5/G+3/kOgwnuifpcgfdEqYti0JvZQlk+lNHZ3Hntw/pgizJSORxh5VlxnhJhgR+lmBHuYj+Sg8ePXoEoV9CktiCI+FHU7HRcrAd7RYRb2EnIbaVy9hRKeOZ1gxe/eztOJh4eMdnH8NUoaxDE6km4906FoXmo7hp2H3P3a/a/9aNXjibEhj4gf/90KPH3fKlR0/NILV8RC65i7bQsQpF4doegngOvdkMXvmsUYx5GXqHKkwCIUpTzNVi9PYGsOFjaqqKjOXQOiuqFws032TjWALBXEaei2IajAjQQvEIKRf2KRcfe2gGh6qaf3QgnsOrX7AT5cboLA1KCpsl+RSYkMiAedfGV05EeGD8BJRVgkP4tsUWj21QtUxxZg4cNYuxHgf9pQoeOzyFerEPqYpRzBJpD2D5AdIohe0XEWlBCDSDhWMkCxr1Xbzi0m14YT9w0i3hts88jknWegjJZ06qe76ge9c43w1xzZZWFJf8wafHnYv271ROAYePT6HuFje3MGeNY7bk8g6KgoG7IjIMezZGRnqkNdzh8XEgcDE8MISDJ49iOvGE+E3wEmRxDmh55XhK2iOGqXqNKtYhRtRJJI3pJuQFLSMWSrYUgaOQptW2ncA0h6QLNyXuQadKI+78AbMzHrJQwfZkS19ZyoSlRwlGelwMbyviiaMnMGeTwi6An8xjrJRhZLACpWzUQ+DgyUmkhRKqEh/RtHJ0LArxLK4f8/Gfv28/vn28hvfd9xSmfFoU7NplGhxtyta43hNMe3Jb3qK49I8+N37SKu8c2j6KMLVxZHoOqfA6bJVRpM/NJjQZLlOncdsNVwuO4m33fAnHg1GwK9loj4vBbb14/LHvYt/IGBy/gPHTE7BjhUsu2YevHzmOummsI+XjtChyRbGA3m4Nk1A2ZBZrmaioYgGXQBwRpXVAaOx1M552h3SoUOzRwvMYk2BqlUQ6zKaQWVszXS+H+uCIkzdzR4+PvkoRTx4+jprnI3E9OLUanr1jCGU3haNCYbni+0SWhwfHj2OOqEvLgWW5UkZuxVO4cWcZP/mMAUQ9RfzK3z8sVHhkbNdB1wtpinWysS0ESR0v3+68585XXbo1XY9dH7z/0FwwcJEdZdg+th2PnjoGZXOPvTAURdtlI2XDZL12kDpUFJN4x4GrUVUp7vg/X8ExZwiBUti/fQRPnjyGiutg7/Y+zIcT2DYwiKPHpjCTWZhJfVRrsbBoJ6RLk56qHfAIa9AZ7S9tMy5SrU2KbGJCyIkRAm5sUqUMUpeEgUorkJanGI4R9o/1kgiXjlTw+MnTqPo9cJSP1JnFdjWLZ46MSRVp4hDmXYOrQjiWixNzKZ6cjFDNfLiFEpLqDIoe8KIBG6+/ageqBQdvvfsbmPT7kJBJ7QLDUGgS5pUPlsYX4ipuHrHfd+etl29NHMW+3//soaNWz0UX7dyNMIlxeGYamVPqQP21YatgXW+sS5RS2MRR2Bn2YwK33XiNbGXv+Lt7URvej8RRODVxHIVKDy4d2Y3TB8cRRvPYMbodhVIvvnPkOGosmCL/pKAPFyqIfAqdD2pV3oXUp8qDG5Jhm/iJSJDubKITpIRlE25OYF0zXE32KyvRBD+Eae0Z3IZD0xNI4gBu7ANuhN3DDraXNMqVDNv0YFiFGmYWZu0ivnXoOBK6FkkEx8lQiCJcP1rBT105gunAwVs/9m1MeH2G45SqQjNvXRhHe0XBeVHMItw4lLz/7lc9e2tCuH/gTx84OLNt565q5uDY6QlNDycQ4PN/EGX42m6w3GIZibfhWCn22tN4+4GrkdVTfPjzD2J+eC/m4ioKRQvfPXIabgJU4joKJQfDwzsxfugYUheoKcYJNKpRaPepLBp9MDUnsbzGkvlkUBTSIyJfEotOan3/Zedjy4pukBevtLxYd6FQtX34aQERDYukjgoJaQIFJ1WyyAnRby3elFdQmTTeUfUQl+7ejsPHjiFLi5hUBWS+h9FBG3vLtNBqsJULN3OFySN0PMwqF48fPSnxG9L89xUCuJnCdf0+Xvfc3Xh0LsJvfeYRTHrbjOuhmU3OD5q0zqqq0VKhzal+NI9X7HB+/+9ufdYvd77j2s7YlJX5ijsffeCJrPT8752aEgxFkmgG5AvhWI2iEH6FlJT5CpdYdD2uQRrW8ZffOISvnyJ0SmHfzhF86+gsBpIqfv6ll2GkbGFiJkFACvtkGolb1sVjQruvNKGJCKi5snNSmzNTsMtyaLczcpf8rjXBQu6Ij379EL46Tw5KH7YT44XDBbz6klHEbg2WawMh3QbdnkBfqxsLksqP30XAV9GNkMUZpqwS3vWFb2HSGxBsxgtGh+A2CsJs4ZZIHB/Hp+Zx/PQkBspl7BnqQyC0/hmu7nHwou0+DmUe7qCi8PsEvRk57MkAACAASURBVGkxhkGynwsAmqnnWAeLAkAxreL6ofADH/ux5/7iRq+dTVEUL/7Lb33n32bVFXNuAMXImSKuINf4G/3Ja7v/cooiN2fzHhoSoBN8SIjLs0m844arUE9ivOuT9+O4O4CLd4whqc3hyFSEy6wEv/SD+zHg1JC4vbCIQAQrJbXJ3W66nBsrun06MXQCfOhLD+NzVQv1rATbivAjox5+7tKLNVLT8oiWkWDjYpbQfPJJDxdHE82e9Et48yfux6Q7DCez8YyCi7G+ophQpIcjRnQ2TvDU4SPo7enFju2DcNMIvp0hjFM8w01xyzOGcFD4KB7FpN8rykmYrQSq0579fG2zY/2uztsvLnfHfL4V0zncPGq/86O3Pntrcmbu+d3PHjres/2iuk0IN81rEpOQAalTpHf9BuJs79TJouAneCkLtjzEToJnqSn83q3XYKKa4C13fw6TxTE8Y88ePPX447AcG88dG8SL9vRhMGDJNFmgPSknZ7EVORoans4youmQjDjbT2x7XQ4Pz+2SyLZx5zeexH2nY4RODzw7wg+PeXj1/jEpMPMdbgasDmbqo9mGN3eb9J8KPYGNqdlZzPf04Xc+9XWcwgB77sGqz2DY89HXUxKAZ7Vaw+TEBAb7ejE6PCwl6FStjHUdOX4Cz+8v4j8972I8FWbaomBLALEoWGpuGHM2RDLre9N2iiJvxTDkK7z20p43/tEPjv35+j596d02xaK4+I+/NH7Q69tJa0J3nBbi+Y3+1nN0f1ZTSpM9JNIp7DR+/Yeejd6BAv77vQ/hO5MZLrt4D+woROi5eOrpp2W3JOGuS+ar1EPdZmCXLQ2be/ByA7UZEmvNMMrOZnp21FziLwIooiXTKspZLHT9gqWQLX0ZqljDl8Es0WUj23Dy2BFM2wGm0xJSSWvGBHfACqWdNVIVws9SjJRLuHhkEFlEQhoCugp48ugxzNaq+A87+/HT1+7B01GId37yu5hkpzCNuDKEv5sy5c9i7i0c3ZxQqBGMZcNuVcWP7HB/5a9vueL3zuIBZ3TJpkht5A//dfxEcWBnRv5IlSFxc99xU17njATW7KS1jNY1r5+mNRTtAGkSYr89hdtvfgHSMMJffPUJHPGGcPT4OHbu2I7vTVRRTwNJK8bSjQzSnzRh0LI1iGjmzPLByzN7/TM/u8OY8Nd+gCwkMItKkhBr9vMgI6AN5WawYp1xWO7gp7FAfbtvYc+2ATx8/ARqih1GHfhWjNDPSN8tGRLPTTAQOLhsbDucaE66ls9nDh49NY3ZiDpF4YYdZbzuyotwhK7epx7BlNeDTGpNDODrAphiWk7LgAVM82QNCMlQTuZx06j1zo/+2NVb0/XY9cH7xg97AzvZBo6wX+kxeQFkPMz4Nd5Ur18qOcPjyAh+nKDS34N0bh69lRJ2qUm86br9sD0Ht//dvejf9zzU4yqePHUKEdGCTlHSd6yYlFa7wiHJPdZ0ts4fumSVrdaeaHcef5fqDIrp9i0EM4R1Oy6ShC4DaQDyeyxzLxMc5PoTa4P/lyjBf8RRBIugLSmCW+baRpCF2ZEQO7wSRoaH8N3DhzHjKFiSHnaByILnsdHwHK7eM4qyYh9XC1XLx4OHj2NWWNAdYfJ+2fYiXv+cXTioYtz+6Ycw6/Rpi6Jjd/AzV6EbeYVuFKazXZ6rO4nF1TkMbOsT+8h1LFj1OVzjzLzjH376BVuzU9iuD94/ftTt3ymlw+RDuMD4RJZMe3bDIiN2EsmgZmEEOyXwyMJuq4Zfu/FqKZy6/e6vYKowCtdTmJQF5gJkceJyzUu5eXPpIiYQobZHR1UhMY8mx9Xim3FRk/lcUVvLP9hUiA2FXUFnSv+ROBX4s9GJLbfIn553ijX34EuzvRt3RMdDpsiP2YldimzjicR2+osFDG7rw9PHjqPqWEhSG55XhEpCBFmIq/eOwU/q0knr8RPTOBWRR5PZoQwu2w4OF/D6K3fhaZXgjs8+gjmn1zSHpuujsy0XwpErCuklK53jYgz0lFGfnUaWsGkSmeszXL+j8Kt/e+szf3ejv2lTpEaL4qg7cMEqinxQcn+dsQQS4faUi0hqNfQgxcj2fkxGVVROH8VbbnwewlThjo9/E8cqO5A6MRLCskncAyBIa3CTBAkzJSTdtYigiA29/ApTYBUgTXJ9dzocZSF0LSg3hhdz0RVgqwpSEBU6B5vVq22ipowvRQ4xDux+Ri4Lhg0JmCoKX4TeCTQdf7uD/J7sg8LOYWOFCnb09ePRw4dQ9z3UlELBcRDEdVy2axSWSvD00ROYVh4im5T9OgbhI8WBoQA//ZxdeDqlonhYFEXeAPtCUhSUF9PHRK6mUYix4QHMnj6J3nKAvlIR4ydOiGxfOOi/5x9fe+XWhHBf9IdfPHzMH96hLQo2tuk0nc+/3zf7zTLoSK2fYKivD5MnT+LKPTvg2RnqjoXsyUfwSy+6CspzcNvHH8R4cQTKCeHZAeLMhZ/O4SUXBdgbMOjnIqZJacVS/q1t+ZUVRadmNSLXFa6X2ABjIiSlsizUPO7IGT51cBLHa0QzAgPJSbzs8jEU2/FRiHlsg1Ao0thVHRffnbHxreNV1Ina9hytMDoc0pSHVpSl4Id1DLlF7BodxYMHn0Ct4sONFCoZsPuiMRw6dhSzUYrIKWklYbqTu4jxsqGCKIqDKsHt/5xbFESHaivnzDAnnd56A39v+rewlE1FJGRIEVgZLt1zkTRsnp6v4/jp47hu0H3PJ37i2q2rKI56g0ZRXMDtFmQRUlEwtpBKym5uahIDlRJGtvVgZm4OF6c1/LeXXI5TocJb/uFrOFbaAWR1ONKw2EN/Oo3/8oJdeF5fRSowWTruWNO6ctSAlNZvOrY4K3nzY0vBS3xE9JwsG7d/6Rv4ztw28et3zR3Hb936/ejPVuajYEaD+56X1ZHZKab8Cj711Dzu/sZB1Aq9SBTrPFaxPoWMmHs+uSZSeGGM7UEZ/QN9ODh1EoHjYnTbIA6fPInZKEJIy4uFhFIgpyn0aIUdGCoKZyZdD4lREJsizFmpIQi+sHYlkvOk9RoKDPXEIfbvGkPRd3Di5ARKBR8/MOT84kdu3PuB9Zsjy99pU6RGi+KoN6QVBaeGxCg25VXWJF+9P3Hvz5BFNWwfGsLU6VMSvLNrVewaHcPlXorXXbsTs06Gt97zVZwKRuFYofjYmVdEpXYa//cL9+Pavj4hupWCSyvU79WGY6IjnkMCi7RKlpGrSZ/QYyfvhJ9QaeneoL99/zfx0CwrPi3sSWZx28uvxbZlLYpc6bBYjdEWMlQBM56Pzx2cxZ1fexr1Al0Y8mV2FnM+/ho/IEwZsOMEg6UyBnoqIukjJ04gzDJRsKmT9wnRikIoeFSEm4apKHbj6TTG2z/zMObcXg0hZ3cg+e4LY56JHIjJcW1kZB1PImEVTOvz0mlux8gYihZwOSZ/569ec82vdZbw2s7YFKntJBWeP7SDUBmhYFkhKL62T9ugq1snvZEesx42zd8kweBAP6ZmpuAnKfbvuRj++GP45ZddhXk7w9vufgCn3e2AHSEWdmpHB+iGShgSHEXedyKWKH4nJti8U1j+pYvXo8ZhtF+lVHKknyO5DAlovjo1h5MsynJslKJpXLdzO4ppk0tiMQCcC5zEteTtVlaGmuvjcN3CYxPziFxPQxjEqOhQqq7IPmUWsqT/lASDrTRFOUyhMoU00DVB0pxQ5Nfq0ih4WYIDw0W88WqtKG77zEMSo9CKQhgzLxhFscBNShMM9FZQm5tC4GQo+T62Dw7h9OFDeP629Pfu/PHn/coGzfbGbTdFUez4wOdFUQgl3ILiJWlVZUzV87TSTyLQer7pvpjcucmRKY3zELgOeotFIA4xW69ir1XHW29+HkJkeNudX8HxYASZHSGzmVZgc2bWkLHakqYxly29UiqMZlpyuaWujYJO9TG8x/I9sXlPfgdrLZjpkF08c6RbFwlipI2AisWd6ESeJXQWrKOQ4bMRp4BfKEqnd5DCTvqwrjzV6G5IKbpkaagALEGtqpQcmQ4QhnA9AtgYwdU1IxwASkqcP2lNS3LgOl62vYSfvXoPnkwjvP3TD4pFIaQ1TI+yz20HhbXRC26198/ICyIyy4SHg/GfQOJXKfrKJZw8fVqAfS8e89/3Dz/2nK1ZZr7jA7QoBncIMtNY2Izu5geXzHl7mO7TspcZU1ZcD5XCI3dEFMNNyHsfIyv5Yr6/85XfjyjViuJIcRQZm27GGXzXQ8xO5CSMlRSlrkcQa0LwDe2DgKImGj7I0oWog8StP19ic5hAMuMsxk0hx76gQrluuXNzvrYfj3yv1v09mblgAZZOjzK7QxBAu8Arg5iMIYjCEpYsrQBJ+Z8yxpEXFgtGg//2YTOTQt4PySbrqK2bhnjZSAlvuGYPnk4iHaPweiX/rhVvZ8vmvJh3dOWIDWHCKE3huMKSqueUYsMsS+aMnSW4YSR4zz/+x2duzWDmzj/QFgWBRgQY0WQtwEVvby9OnD4Fx+cESTV5rFROkhBFCXnLSgcnTKedb1WTwCgCOdd0uVro1nJSmwVMjU+rPH+vJrRAum6R4epSEtfc/FwpZnrL338Rx4pjwgQl3bAYvBMHn0E56gr5CtNVi7Ue7d+4HAQCaooTysZBKixSOTekThm2lpUtd7tm9sY8S05qnikWUztrgCk8pyAKJ0nqcKQvCCtkufl7Atri5Ywh6PswS7Lwu/jTNE5gB0xwJnBcHxnRnAICI9+mIb1pW9ClhDfz+tEi3njNHoxHEW7/pwcx7fdKwyBXJcLrQfdKLDFpiJy7ItrV0Rm4zinlVc2jdidRiUpoNR+rXPZKgFXEnrh+UZQs571W9wv9c1phJVXHgWH33Xe9+oqt2c28oShIYSaDw27UTKOl2L5jDKdOn5JBFYiMMEaZvePclEsuHeIFkUOzfzbeZZHyMm6JZOOcpYrieGlMdltyJ4Qce+k2HMFhzwr4kiIlE4XE/9s4hoLdVDF834dlOajXmXWQiIOOBwj922oss06py/buDUfJ8W2ktRo8VmRYLpI0gx8UEEV1+A7blxSEMDgKTZCW054xhsZB2DffOhUIeMQyL84HiylX9gphLQwXdrtFvLKioILqLRZQrc0jkfHJafFawWi5HDq5c2tWE80b5PNKdACVhAWVRigXi9K/pcbeJRp51fyzxe4uqXDrK4rj/tAOIurEomBKkJNAKTHHPc9DtVYzvqfssbpF3aom/joO5HK34jvk1HTsL0GY8XLn0dJdQVHQ9GH4T7ku3HgaFxVj+HGMyKrosuyMzXR07F9292UVBhVFJDu463qiWOOYKEi9a4tRzia/LRcvfs/VBai0lbP8IVxemAwT1IMSnMgTyrqCnWCIJrKbosjX9zzU4ljHc2SRGtau/KZ0NxwbLtPGysNj7HHo9gJ2Ha6KwJKwzr1pqShi3DCqXY9Wi4KP8ZGhWCpgvl7Xm5B0sdQMYuf8WLDxGAtOusslCAIfrmOjFqVIaW02mle3/F1eOMW/A0VxrwFcNS0KBsOoNGyi/GwHhSDAfLUKQo/EVz5nA9ouBSOYZ0HLUZmFcSS79wKXJ7/ctFNd7HrQoiDASbrXJAq71Qxue/lzMRzHUjBNOLtPhKMYp212UFphdiYxDrpk2kszTFiiJHQwWDcHXv5Y9jfLybn1Hi2/53wPbRt/9sB38IWJBCl6YDshXrKjiP/rir0oeAp2ZElwk26Y/p9Q1ugXkp3S/FW+N0HVcvHLH38AE24/0kIEK6JVWTYf0IbJGwq+inDDaAU/YxTFHZ9+GFN2SWIlVhLDYwfHQgG10CgLsfqawVF5SKcu4uulVRiHyd08tjzMMgSeC8fKEEYRHTAdq1lx3iuUshA3Drrvufu1V2zNGMVFH/iChnBLk2KalZSYNvlI+S7NtQGUKxVMz8+KopB+mIyAy2DqBbvWBjgrL5+WXabhT5KNSccWSuUKkiRBrcaO3Y5WZIsO8a9thcuyKbzj5uchsYDf+Lsv4BiDmaIAWOjjYEf1GN796udjIAzZ/kYqRz1UNUioA8lKI+grE40ZQy3DJE7guR5Sw7XJ1KIszmV0IOXd9lghkJnP8dB28f/d/13881SCul2GbddxYKeLn7t8L1xfIYozeKJaWwI4izZxKk7iHNirbN4O8Oa7voDZYAxpIYVFHk7FClAd7F35UAhUhP8wWsYbrt2D8TDGO/7pO5ghH4Ups2Pwj8qpWC6jWq3K32lZ6AVpFNe5DqTL2ACFwIPjOAirNbF4pHVkW1dboZDWcGC79957XvPsrdlScOcffGH8mLdIUQhnASsx9Xx2Ld0st9TTg7nqPAnhmybwRsYq5D1EG+k5KcFUurVUVjGCYlH67oZhKCk8zbXQUtWWxyjaKApxPaRpr4Vhp4bXv+hSVGKZsWIB+AxKZuSi7LB9Nd5Vn8fdiLqC5n0qlZ9CS9nYuLlZrofocpeZzyRI6++/fRgPz9VgM7aQxPih3cO4cc8AakkCxye+RG8AKx0CryLykCxViY2PfP4xzKKCqqfgprRUCuKetq0AzRSCrI7rR3vwxmv34FAU4+2ffBAzzHpQUXBBSgpaD2+lpwezMzOCF5F4IRcmU5KMJm70YfoGMCaRZgl81xELlXEmKnVuIosxMktf6d+tomDI0qTkZFtMhfiELklvTw9mZmcJ6dHmNGMDG8CxqVVDPlFyRZGKz6iSCMViCTUG5GhFGJOQgcRWP1d+LFXNK1sUXMEuo2q0hdkDI5mTnDgj7s0i884TVgh/Gqa7DobRuC8VivJOc8QxMBQsO6eSHSuPojcnXqdgZvtVI0VhblGsQjfVHJiB4yOen0fmpsiyRL9Xw4pY+l28B98tU2w8bEsbQaS+ZDwsxcVtmUZf7WRC18Moiudqi+Ltn3oQ06IotCXIADD5Rx2xvBR6yhXZhEShJplkW5g5anusphiv09CZd2D3s2KxCJe1NrW6bIbSPnLRBrD8+/w7VRRSoajT6PqwLBBuwC3Rd1yUy2VMzs3IAtBUYMtNuLVvBU26ECIWcyqFFCVGzefnRUEp24FKEtguwUkL04erURTyDH6D70GANaZNoC6Lyr0w/fyVDo1m1TBfERezQ0x2mExRqRggTCyE9QiWLMKVlOsqZn7LS7QqxXwMxOGJYhQ9H07gYCaqIiMPBTPcMWM43Klbv2RppqjkeKjGdWT0O7mrp44BguUuR54iWtku6aQoiHVxPFfaE5IOIIlCScnP1erIlAkAL8jGLPOsVYirkzcnALQ0QTHw4XkuZmdn4QjmxLhBptCt/Wz+96Aofv/e8WP+sFDhcZUwrS1gm0Zsa0HISxaMZzuolErCqyg7gAHZ0PLg4pV10wEYtBr3k5OJsRBO5SxNZEfr3daHehgiiujjalKZZsZqkcISoFImpdnkSLiE5Lo3PR+xleFtf/9FHCmMarOS+AIn0DutrflCeY3gnpwkhxuuPFckuWF2vwalXB4u1JeVgzLSJEO1XoMjSk3P8oYyNMi/dhNSf12usbT719RfxFBYyCKFnkIJEVKEUVXDpdnBC0W4qQ+GaWk5CSArScSN03BqjSPg+zhiUWnZNfyDxorLGbLaWxSeCnHDWA/eePUeHI4ivONTDwq5rryLBCM0b6f+AH1PkoT3VljApzehVOnGzeJqshO7RwRtjmXIfbdOcZ2FoB7tZRrsBOtSLKDouXB9DzNVbj6MR+kojub15PB3yMZYRlEMee+958e3aoziv987ftwf2cmADaO99E87yyWDz3x4/zacnJgwmRDOPYb7ubnSbDtLi6J1C+CLRJHsPHypSrksZmHMYCpdjlUUFRFbkCuK/ZjC7S97PpgcfOudX8TRwqjc13MyRIlhf1KxhPsYwNQMU3XNTr4C3Lh1Ci2YsovnVhqjXCyJlVav1WG7BGXp6ShT3+To2077ZWDi4uCw8E1iyrS2ONEz1OtVWei6hR9jTEDBojkfCxqVlaRsaqQtKC5Ip9E7WCyssxw+fZlOj14/piHc41GM2z/1Ha0oKN287qWRbtQ6g3EdTqFKuYipqSkIY0+OR5FNIbfszjBG1jqnaO3RqqMV6gCeY8NzHMnqsZ1jRkVhFIRuKWAUZht50C0rJFUcGPa3tqI45g3vTHPAFc3STgpU8Etao9MNYQk3J13KGgvx7TvcoN0kbLmUE4rmIIu8fNdFPYq1kshjEZzonfxYAUMRVARcgiltUWS5ohiToJqbhYjZl5Mullgu7FlRMAFdApMY4V/um/KfdQIgcREkgvILCnwOmlkaYw7lgT3jvCySUG5LSDWK/p3JAOk2YLQMbBTcACXbx0R1Hp7rI+T2advwshSxRYRmDEuV9FKmpSSKyjesWUShMubDn6+196yCpwhpLuGN1+7G4UhnPaaMotBj1opL0JaSht8n8H0PhcBHrVoX/IKgJo312BRM7uetUqW1DJ+2nVK4rg3XIU1gjFilsMTSM7l0EZK5d+edUwiPbh5y33fXT2zRWo+dYlFsbygKkqQsFv1iIIz8PonheqwPsRAEgcQMCNSRlnu21DG23ZOWW3YLd2TpzSUTp1QuC4Apign9NUuJFoWArDo8h4uFisIBLmF6dImiIAAhRlbw4Kka9pV9FJIIIWMfNtvwcYGtgpe8bQrDMG8aq4EITk7IOBZkignaEmvRyRNuZnR0XwwpTpcYEXdFxy3i0OkQp70AKnHFQui3E+yyUyQlFpkn8CIdi0k8hdT3cXRaoZqV/n/23gTMrvK6El1nvnNNKg2l0oCQhCSQBAiBEJjBTAZsJ3mdwSaeyEsnTpxOYsc28RBs4xgndjrfS16605k6ec5L4jiAARvwEMyMMPMsNI8l1Tzd6cznfWv/51SVhFRVGvy5n9L3+2xAqrr33HP+f/97r73W2qoFqDdALibA0Q0nmxKmGUWoMopfuYCBIsQXvv/aEYFC/C6Ek5MyOfhdBLsh2BrKDNVSIY9qVZUD1FmAClgla5u4UTOFiYlDS9wBVSufBw9hG5vBqOmpTgvBZR5CUt6kby/3WB0y059tEZywiXfNPYMziu7/+ujBPmvuwlA35UaKvHjGhCBRCkKXQ2o5rk9HuVzGaHVcHr5qK6Xc+Yz2evSdngBKpzwUWQVp7Zla2uWcHIIoEv0BFwoDkTAK6dTEIDET+YsjBVPFIgPFF2+azCh6cwtE9KVrJGo3MTccwu3/6TK0UUot7XxNZN0Rhdsz7eKZTh22YXVhxk9QUGRLiUUEW6m8b1kFoshaR38kcZ9s4fP2qfWrye8yMa9FOr7x3Jt4fKABzWgDmA4vacEHVy1GbKmAQtd9Xae5XoJxy8I3n9mDLYc9eCaJVB70xCNd6igB2/Qb5e1/Sx5FiGskUBCjYEZxZKBQNQ9/MyM7qbY3+930DiXewrZ1uVzB6OhYetqrvGMyTkwZt3i8S5QeP99XfMqk7LFtU1iXY2NjMLimUu2rGh14VFSQrGKmFDuSjOJdc50zuPT4k0cP9tsqUJCNORuMQt3QtBORSqTjKEapUka9XhO2o6hCUudilSkf2R2RW3/UcUCwkrV7wnasaSBnWROZBCm+bKep3TP58GY8UbRY5mSyR87S40s3XSyFxO/f8zh6c12KmQkdejSGpQwkP3clOty6ELFiOLAjNTBnJnD2bX+fZT5TFvDkd1YgIduQIY1Q0unoGdmIGyZrpEz9fnTcmjhPU8EcBWgyziOO4Zk2/uLHL+PJccCLSjB0F+9ZlMOty7th0iwmKYpy06BmIwIa+TL+7um38PhQANcqySYlthDOSDCaKXCo0uPa+ar0OMRA8b3XMeIojEIXj1L+78hAkb2rQm2UCRF/pKW1BSMjY4pnIS56mjiKJ1TGznDcy2dwXQkvKAIPHr63H9ArlcAu8a/sk47xvWbVWckCBcHMdWco4epPHj3QZ8/t5uKgujri/82qna8WM9M4mcWZpnXlUhm1ek0MTbI/y3gWR5YwU+2+1a4SkIuuUgJsqS0hPi1ChknZnxPBXS2iGZMfaldkyHA0ESj4lrcxUDikcJsyOtAIG+gyG/jQFWtQDnwZlkM7ujQvSjsDx98gSn04w2vCpl6h7rx+Wt8TTPQ5QIdsVxEjpRyVt2VLaTeKQUbX5NTllHIR9wLijHXf6zvx8niCAAUgbuCyxQXcuGSe4kDENiJiFvyYKEFT1/DQ1l68ODSGiBgN9T0RXatmcV9nSMbtJMT1glEswcGAgeK1CTCThCsqUxSlPf3flOeqPl3dI35P/ntbaxsGBweFX8FAofwwZiEnEJcywjgBHJstUEvwIVlPBDWP4AFkX+qoVTXTItOYQTVxY6f91Xvff4aa6y5koLA6u2mSIurRWYCZfI6iIk3TbckcWAokkfgptrS0oH9kdAI/IJZw7AI8Oy/VkxDUW7oQprRADctGGGQnTwYsZeFhqjx4mlVLhmQyJVDcfLGo0W+7+3Ecdlh6aNAp6oAOk47bSU0sF+IkJ85XMiErTfGnDwMzYTJZqp0i9iT66IaoOlsrFWmd1j2a5qS6kGPwU2ISplKCmWMrsNVzvUktScxug47QKoi9H+ImDCdA7I7JBvEDitZKMhTISJQJTiImNMofgsFDZrtk+3emwHfcv4+Ri6M0o1CB4vaHXp3AKHggCE8lyyjedn95j4hX0DyUUnddJq0X2JIfHVeEGmHLzpRPKv8OZh7CkzBN1Ot1AcPZDZJVN6UjMqn5mikyHPXF/yMEiq6vP3qg354SKGZxME4EigmGkaaeXURGog5LB3KlMkbHxo6pvZi8zWrTK6o4qdIxSsWCaDd83xfEW6MfwgT3Oc0DRe6ubPtmPMlp/MJ+vPAoRvHlmzYi0hJ8+q6ncCjXJSYtytHJEmVlkgQKJIyZTZBX4qVdAQWkHfvFIMD3mEyeJUOa+GG1qNmmnDgt1SqVhcygS4AzjBPJLCgsE1B44g0U69MyI3helJxitAAAIABJREFUQ4hJURQrZmqam0iwFtakwozAkkacv3REaXmlReQNqKAQ8s6ZZhrgeS28owyRvMYsOJ5cpCDWZccBrltQwK0bFqMniHD7Q69gNNV6qOedBsyJTGzybk3yFsQQQoBN4dFAk0NobGxEumyU0Ivk/ZivlG/BoT2WBdvQFS1bDi0r5f68HZATJYxkcifgSP8fI1A8dqDfntOdgZnSqj/BgDr1OWVqRIfpYlsb+oYGkTDFSzkDqiumVIs0VeFq5sKm1Vpra0VovKEfwnLIZsw6Aie3YFULjtsnFGLV8riOP7xhrQCCn7j7WfRWzkICb8I67gjs4zjmocfCVt52dTPUtRNvPeVA5OYq2mROatLT1y3FDlTaCPVPI46E6BZEIfyQuotjKVKzMm7601YdpEc+aHW3pag/8ow/mttyzN+cEv4THbkoxlULdfzyBd3o8TX84fdfRs2goIyMV0cZ1swwMYw8BnXoK0yHWQXbmoWCA69ehc8klkQ5HiTC4kzRYIKhVMgK4zInKuh6s6mKmbTcUe+taPanSBqR73HGlx5dX3/sQL/T0U3vBdaOIviZ0f9x+o3LR0CeBRWeBDhHRkekthQrtqzuZsqfnir8J3n2rtdQ8mzpp/MyMtnxyQYK/p640ciJuTyp4cvvPg9xHOJT33oK/ZXFiDTiEZNIxKl80qn9bgwjDiS9Zmbheq6y4ZN+MLMOA6SC047O8zidKjtJ0y7ARPQ5XpSfFaKTko1OufZAPorxzm4TH7rgLPS4Ae546A1UrSIi3VcAYqKYwNO9uBQnywtmeSxN2REB8o6FhhsgYgmSRW/BLLjuVLmhVKBK4CUStIx/M+O0tBN8kmmgOKO7HipQtHeHMrBeGdecaqBQ5YT4M8O2FIBENiKlFKxRYqaRpGaLGlRDLp+XUiMUU1zGEtU1mc6/YbaPkpZ2LGtYd58NF1949/nQjBi3/b8PY7AwXwxrjxI/zPatT+/Pif2eojbbBSUk8+mqlJYw+VxOuj70RxB6tbBflaWtjAKYeM0KiZ7m2lN7ulP4dkwACkED1yxqwYcuXIl9dR93/HArhp08YtMj20vNSZkZYjjqKpQwjfeI7fl8Lo96U5UT7H6IRWMqVMzlbTmoXNdXLXVpP2fq4qMB1FP4svKAVEZxhgeKR6T0yOZ6sH6fkWEyUV8e/wYz8nPdG8QtDBNc6EypuaZlvgTvbxRLJkHikWChIsXmwyQsf4oPT0UcwRnEvj6JsQJNfO7GDbC1EPc89xZGUJLSxJhZOXQaLmYWbyFiMl1SaSdnC1LP4EB2KqX+dddTfiBCGjIUjvETmcIynSnNzN+DGEOkeVjbWcY7uhZif5Tgi997DaNOWcYj6IHCQrIxqsd9x6OSo2wGrACUqS0jmcH1Rk3Id2LFk0DwHraeXWZeGS+H9ysD1Se6LTN/l9n9RAQndnETPTPfv/4M9cz8k0cP9FsdEiiIRiui0Wl4UYyUjrskks4eXrGQR8N3BWUnTkEJNsVdrLmZRYis94g241Gn45SyZdZXmBm0xg2cE9fxpZsvQjkaR8BZo4mTTsSaDYI76088qR/MsgQJoCktm4udykpmW1I4EJiMSdxSXaapBscZW/F0xFcBeE9hFUgOF5PfmSAfJtgGHZ///osYdtoAncOETGHuRjLfY7rkJjPdVT9zdN5ESThxiEqlhNr4KMy0vWwaNho+XbLZxTueM1maXaTA5Uk9tOyXKDGImrhxnvOV+9639vOn9F6z+OXT8oxn8TlH/EjX1x85MJBlFEkkY/Rm7CTM8kPkwaYdDVGAcIBMqYim2xBnI9aOYpFPHGGCy0/rcwVCTruMZhE0ZMMxhQlC5LQAKzUXt918MUphXQx1rYj+j+QfHPlJmWrwmF9TOi3Th9Jpf18iwXHeI+WjiHsXexCCQzDL0IQgJEK4dNiXmL8y5ZaLTIVlExec0aKnfoOjMIop6uAjv2fG95whVkxDimT1ypLPp1JU07E1DvGVH76EUatVnqtObrlMRpvdkaSuKGP7Zlkn5e90DyMQ7qNcLMBtNOA4OdTqLjTLTmlbxw4ys1zCs/uxLFB0Wl+575b1Z2ag6P7aIwf6nPbuWLNVRjGr0mMW92+iblabUMQ+qZR6bkc7evoOQ7dtFSAk+SAoR0k5h9+kG2mGPvnxrOszYpeAomxbSsAI0RKF2LxsEZDUhKVnRLYQrhIKoX6Cr9nAiMIrkKE4vFecQOWIAC6OIqWpMXW4TS/lUfCGKaarGiicnv/TfNBsrkHdAv6kklpPE2amvVt08CYd3DUdWBowFEZ4/sAYTe3lOZhCoGDLevqbPiEEOEL4p/ArhkjiEQh9ATdltN/8eTjQ0wMKHCO2oiWbUOtP0bfV52XYZ3Y8nGo+yaLHjpu4ea515pYe3V9/+ECv1dHNSWEiM5d24ky3LuuBT/OgRaadPZRY5Lxx4KOVUusoRLFcxsHhwZSIlZmX8iRkoEgxjKPmOkw9f2QZS5v1yJeY6Uz8Ea34ZXImEm42z4PFut8kTTmCEdvijUlKc7ZFTiReHOs8PJG08Ojvw8KL1+9YtgydocUf72GYxMgV8oLuu42mGB4L/pK6ZPFn5JDOqPKzO6iP2DRTbtkJw0NHtBhTarkRa3B1UyZ/6zrHIRSV5oaT2ThgKGH5cfy7NdHIkH/JMqeMr0nYXZUlVJrGoYuWYh7DgwNo58zZGl3jrdR/U5VR4t6XBYp0XQocdhq6owzwNOo5owPFoj96+MBhaY/a0qNWW3umQDERl9Vim/q80/60QrY5z46ruCkt8/bWdrh1F35IUM7A3Lnz0TtwKO2CmMIYFCBTWpoMVwG00EfR0mBRxek1YCYBjFg5EnHmQsHKKes2sX1nVyDAeL0pPAPoJpp6CU12URxL3tuPI/EdkNZ7omp+WYgmRXEEEslY5F9mRjQZrno8gsnbwtdRsSa9OSnJaCoPgwFTpyiJ7EPLRBw20VasIAw8eC6v04aOJopRXQb4mHYFgRdDi+rSaq7n2qkHBWJXFR+8dgaRdANkFzJVrzYrHsiM+IRQu9K1QnCVrU51MJCzogRfHJ2gS/Yg7UpCypyuRXm7lipU46zzoYYbE+YWIpYwdPlfaQdOOlekuqtMRPAsaXFSkq5JYG3UamJFQBJWsdyKaq0hQHAsJj1qTUniaKQUACHiKWKdMl46+RfXi514uHmBc+e3f2ntmQlmLvrqwwd6nTndnEqdTbM6UYzi7QeYmpXBobaGGQjuQWv2wIsAoWQTnU6QM0xUiiUMjowhopGLcAN9FCIPxchFVz6PNWcvxYJ2Gy2WjZJpomjoyFuk9CrxqGJVpiQjoZWr8ydM1DyGOqnRfojxMMSuvjFsOzyIg2MufKsAT4xc0klVWiDridoJ9vh1YVFyKjhZivyg2QTP6TKsKX+XtjeFgRlRsKSYmMVSWWzsmmFNRvhx7ywtR/jwRcthUgGtxbCdPHyvjqZl4b8++ALGcp3pPVCzS1XX6kjzoRMPFNNvmonnnVL5Jb8UADQNqgzM5EtwY4tnCE9/XTYmW8AMMvTI4AxPZo9UiYpdTOTDFOq66l74Enz4fEgzp+kvAVADIbNTrjAa4ZqUigfQDdL9GRQYOHQx8KlVR8Rvw5chTDat2GBwhqoeSYmtvgfxoFMPFE7s4eb5+Tvvef8ZOimMGUWvfWqBIltWRwQMOjFT/kwxTrmAehiKbkNoVnEgJzgljLapSwCIq+NYXCli9bwyVrY7WNxWREsuJwvJoC6CZxJ9FtUITmWVJnoAxcZTNXhqYZZy+Ulzpr8C+QZ0qQpgwzMs9DdjHKiOY99QFdsP9ePQeIxa0UCT4+PiHEyfI2ro56Bs44QCPQtdwXTb6215h+wumsgaIqHP54owEgdus44opwxcKIBeZY3jjusuRbHhwtQDUARuODoGdAuf/uZj4GySyCQ3RQHCWbfiiKU/Jb2eXUYxU6BgpEszP4lC7Mqo8k3RwJmd0UGKrNIAehSghBiLigUsKpcxv1hAS5HaDR152xbJd9GxYNFEKPUaFUA7tOGFgBsCNd9HLfJRDVyMNvk/D8PjPvb1j2EcOmq6BY+YF18hA4eBSs5Gs+7JYcCunmqfJsiFiv7vmcrukESuU3nx4PvfgeIYdzC7rceOwyl+wdQ9ilDJ5RH6EcKYpzzPkphTdVR9CQvFYBxr5xRw7eplWNnioMxTJ/BhaPGkNRtTRL6t6BlUQFDTqpTiVEA9wSbkh1SCIbb+auKZaAQZNFLCTWzqaPBKyO5LgO2Hqvjh/l5sG3IR+o5gGk1uPga6iMSvTNB18stpYoNO1MrsaiiZOY15eOlRUw0xcsk10A3okY91xSY+c+V6dERs92kIDUfS6RHbwe3f/jF2ayWxtiOLU2aKZ0YwR1/qTBXSCXw1Q5IHXksKSIh7v5jpTXS5ikjQQrOgtjLWLmjD2oWdqBgRqCqVGfFRwHxBlYyp5mUyacuCP8tRxRlhZkGODVmrnMpOwyIfBqqJhq2HBvBG3wDeGhpDr5cgMEvwIhuGbiNfTOARs0joWqaOEysdWeCzZKW7+Ozk0se9Q5OBwrnznvefoaVH91cfPtB3gqXHcQNF2tbkTqVLUa5cgN8MYPqaCKtCZqFmCCNoSgdiecHBL1x5ARbbCUqxC0snp0Lm/6mHksIE0ixMd5oMqOHjFi9IwBS3VHWWZcWBWg6ZMSwdndR4v0wOr4btcuHFcupxiVcNB7vHQjzwwk68UathhBkPhyJFdDw6dcRLMaxTTw4ufn6nOBYrQV5blaQh3YeRqGFBJmyYcYxVxTp+7+r1aIl9OAmdsXTEWoRh08IX7n0G/fm5cEMqIlXdzmAsATUrx04xEzrW7pABRzKwgRiA8G9lDkcxCVAMa1jWlsMVqxZh7eI5yHkJyiwzfE+yv8Agt4GW/bQdTDOg7HrlvdKHzhNf4xxY5bdBPImHgcGSlhlixMMnHUWoJfBZapoW9ox5+MEru7B91MdoZCDMaygWShgbrSvjI2USqjCwULlX0W/kVF4qULi4aX7uzm//70AxeSuPeTiFPkzbRkTTUl1HpVjGmNcQPwkzUsaosR3DCGtYEce4ddOFOKcdsJIQPMOjQLUBab8fJZHoMdSA+clPk7ZpWnDLSSDDe96OHWQnBH80EvWkGjWYvRPVpOJET3duLh2DbcgEselgRHfw3NgYvvnCVvR7BBNLvLpTn84uMgQVKBQCnwh1nQCs0Nd5GjvMwpThrZlYcIIYqwo1fOb6C1Hw6rBE3GYg0mIMmXl85q6nMNa+RMBhshBFaJd2RFTgOLXa+3ibhya+pETr3OxkkRpAixHh7BYDv3DpGnQmQCVoqGBCPkz2zKTtyufF8oQ3IctAGAgUvqECgnrOqvRLAywxjpQ8JfNKMwNgHhYyVFlhU03dQsMw0bQ0PPHaXjy0rQfNfBlGqQ2j4w15j4AK4ZhljinrToFdJ//KAsWN8+yv3nvL+jN0pCDBTKpHZe4j21azIVxlNXvK/plC+aGcVyaEaw7qvotEnJ658qnoc7HcBn5n00Ysp4+jPig26ZFP7MGGFvG8oDWdjigKEFk0rJl8gJPSZJ4KPAXSmaBHiIfUz6u+uWqLCTVcaMXqu3HtkRAks0rEJS1Ox/754k5NHKNPK+NP7nsS+9COwBaHijRxmWIKe4JrS5yrSGunK6XN8QCJzExlBkEHLwriGPzI/WCQdMIQ5xVq+Py1F6Lk1WTzePw5Pcagmcfn/20LDpntsEs2ooADdfjtlOZBJRaTmcUEXndq5bj6xryBNDqipYBbxxIrwK1XX4Sz8iFKsS8cFWZp6hmkBkdpRZqFLlXOpYMY0z+cPNezXq/0OiTAMrPgJqcFgRSZkowwgLNTwg4b/8dsS3lQaEYkyMnOoID/+fDT6KVZstOKEWYW7DCZHG3A4c3M0k7xprDrIRmFc6YHio5uTjPP2lOz63pMpfCwNUcvCkxoNwKPdvCWzNCgG4oRNHCWHuK3r92EZboPM24i4BDkwEPO5NkDBAQhNQN2YsLi5hcnpKypMbHE0iBBQCqjGjEvmCoiU6CViNyoOZmY4zOJcCvSTsrCYTvONxBZBmLLQ55eDoGDHSjitocex4jdikRLS5AsOJzwaZ0OK2YmYTtif0eehGRaabZhxdwWOgKdWZkBMw6wJl/D56+7CGWPM1ANBJqDWA8xZNr4/LeeRq/dgTB2USzm5cpqRP+ya5MNnd63KbfvBOPb23881mBbBoz6EDZ0VXDLpvPQHblo0Xw0A85t1WAbXE8qkGcuUkLElExQgYmZMlT+PW2zqw6KSjjsSPm48qkJnsOWN98ijSNUorIrxfvCLFFo4SlpUDc1eCEFdA5GrQLufmEHnj0wBKN9AfpGqkgIZE4s4VPLKJgCnfGBYtGdbI92TLRHlch7Njcuu8uZd0GCllIJTdeF77oytZoAkoKxQ3S4VfzmhnNx+bwSdG1ULPcirwDd5OelbkfidsdVo0xX1ImYqv4mzOMy1qbKFjLnPgG70kaX2hPqlFB/psHkaSuLTvXnQ862SPNdi9lnaCLQdUQE3DhmMNBRyxfx6PBh/O2WvajrZTUZbeJIPbHtJnlMkih/BE1Do8aamQs7m7GZDsURhmoIPTFhxhHOzTfxuWs3ouC7krDLt9cSDJh53Hb3k+jNzZUBzCzV2IJmW5quVzJFjUq7TI4+Na6f2KW//ad1DYWgik0tJm694kK0xk2YLJ5YCpJ+HlGtyba1stnPwGUZMMWxBSnoLEaDacmREZ9Uu1QhToQwqCA2yY9IHctZ1hId4XuYMKV8lFan+FxkBwQDh0C70LUGmloe43YLvvnCbvzgQB/y7fMxNjquyrhTbI2q5UA5gIubF+TO4IziK/9+oC83pT0qKPTR05vfjvoT5ebGMdgdCAIUiwV4YYQgUIIvppzyPkwZEw8rkxr+4N2b0RKOw4IHK9bA6dtpZZounWxrC5dSfl/NCyFmoURQslGPMyznWCDrxJ8dnV1OsEbJk4hghCVxh0r0pvT4jcCCbxUxYEf4/fufRR+K0iZVoWYKr2LipOZplzlEK3dwFej475FsnkqxKEQpkYrLhp9qnMILZF3C8X8BjNRBaJ1dw+3XbUAu8kU7kYtCMfw97LTgE/c8hl5njqr5hbcQI18oSrfJdTnd3RLwU45gwRVSXtME4zWtB04wcGhmgGVJAx+/7AKsKBgwpByIEBoBQnpyEmc5DkB4BOY0dZOmDZRJJIl4CwVw+mQmkUoApqBWR2zztNmVlohZPhPDSz1yxqxWfOr+x1BzWmHn8hgYD5Bojgx5kvQiw3ekZaYCt4qvMxyc7ODFHt7Vlf/q/becoZ6Z3TMGimMgwulsTQYKcuw5MJhScS8M1IwEqcItaHpTeVHGMa5st/Bbm1aLbj/QA+lWKCAyewjZP/kGyoGZ/W8B/7iBU+blVIDueHNPT2Tdy8Q9tm3ZMWCbUfdEMGZGFqLYgmca+IPHt2NrnRlI6tYsyGh6vZLei0Bj8mNlR0rtJH9J5mjOppYGYkgjZsGp5HmC1RonYOkRmDwN6ZStQM31zjg+d/0G5KMADZOUdBd2BBx2yvjU3Y9h0J6TntwMLuRfEOXPC8O06XpSyqlBzlmwP3WA09Rc/MyyTnxw1QLkvTpijnqQdindwhLkAkfdyxP5qKzTmgZYec4kWEW070/zuBMs96RbEnFwM4miAcZjC6/VdPzFI68gyOVhWRyMzHukytO0BaLKNQkUKkOZcZp5wizUx40Li3fed6YSriRQSHv0KDBzhodMI1pGBXIAeEIyk1BeCYJdy7QpQx+RFFpLbGyeA/yXzctRCHwE0GELWyEDCCcDxtGtKvEdYCs0VUtm/60Si1MEoeQ9lG6ADA9ODVOppCI7sGOTwMFnn9iFNxuJsrFPSw+Zzyr1dLoBU2BU/b06iSQNp2ejbUMnnbzZlO/BIMHS4OjrtxK2DxUIqzGtTkKst6v43A0XoxQ05W4ZCWtyoCfXik/d/Qj6GCiIn7D2Z4eJ4wM5NKnAIT4J6m5TDfeRaz/J+3XUBi1FLn73snNweYX23024egkORzJqTblved+BZ55goMjGPqST3vnM/dTISBisYk5zIpFHgR26OI8zq6gCloNq3ILPPvgiDkYJLE1HUaao0/qAQZYerYoRO5GWzOqeMaPw8a6F+a/ef6a6cDNQEKOYADNToEndqAx9PvKMloWcBDIhjPJnnmLiXJWlb7JXeCLUYEQkE9k4y+zHF957EeZ4NflvPnOd9Osj0jr1eQLuHSWenupOLVjBSZ4yR2cbqhsSw4lUFkGfisgkxbfJoXNoamV88v7ncVhn6SFRRKWpcgKmrT/JKFSDLuOHSos2xSRMw8K4YBIkEKWO5PznFGNY6XZICZGOL0wYTD2sd6r4zA2bUA7qQksXPAI6eu0KPvutxzFodYhjuExnYzcx3az8/HzOQRj5Yp0HMx3CLF8hdQk6Xn0+w35sCV188vLVuKS1KY5VHlpQcHntLgIzghVwc54g9yTNKLIMksBlNtEve2YnHCjY/I5orMtjoAovCVHPzcen73sRB5KcGBqZiGDn82g0ySxVYKgKqlMHDc3Es1CB4saFuT++70wdKUgw87DdfpxAMQlFS6srbbex/VTK22i6tJfXRYCl/C0nazmChyEpcDFJSwZaw2F8dPNKbOp0YBOtZloepaWFTCHMxvapFtfRgULWd1qG8HSZwCymZBUnV4oQ2gzE5j4xcpyVJWK0JPHQyLfh0b0u/vHZt9B0iqLiVIV+elqlwKLCTRRZSJCZtBxxeDqxBcqRhVR6HmNjTtwxsZ/nLaRVHNt7XMhNrM4F+J13XQrb95DnsDRTg59EGLQLuONfH8GwURZZNVmkJDDR2k91cxSZqZSzZKCSF8QCLstnpGm1So5O3PouHzfxgfO68N4lRdhJE2FSgEXJvunCN2I4gZXaFRwdlqf8tzAu06wsKzdM+ldoE5jENL89q79Sj8mAGYYoaAnqhoFXrQL+8N+eQzU3F0gIEPtIwhjl1laMV8eVeVJKEZiYSjbTfFsBMz28qzv/x9/5DxUojvISkgyCKaFliS6hQJMQr4kwjCWtZiZBgH0iXaNde2TAN3mriVFT+JSgK3Jx27svweJoXIRfTSMvi5iDWcQLMX2pQKHIUEe/JjwYpgSLiU8+xiyMmVaUwkXFVVNKJ4Y7ywvgaQ7eMkq48wcvYyxkEOFYwRR7YEqrFCfSgVAxQrH8qHEgcFikTkUzJK1lm5hTqY7nASrBghkF6SaC61gI9aKoLHPNKjoA5Eg+Mh348JAkPhK7gp5mIi7USskJWCSdGC5C00FMZaZQ2D1Ucg58N4Qf60jYZYrZQpXQn1YjU8G6LDM6/p0zTB9rciE+c81GtNXHleW/bSIwlUVALiTJLcVujvM2wsFKM8MJHIpZaQqSZwfDTM9vur/nRzBbzHNd+BaGC2V85ekt2DVko5FUhNBFjYogT5qGUqmEarUq5Shb8wwaad44/WVkgWJR8Y++877zzsxJYUdnFDIEaALVT89Aqvuo2AupSygISMaam8szarhqeCwpz5JuK5adTB3jXFJuaKMJp2Agrjaw0DTwO9dcghVaE57BKeUGYp9UXfV7PO0UJ+JIBeTRT4oA4dRFlS2sE8UtJJQxMjlM3X2YQQjNasGOpoa/euQZ7CfNt9CKhufL/FFxxpY0OfMQz8BMNcCIm5YiJ744AFdIQJwRYqrT83hJrEljnXAMFbOBJNDRiKnpiFBxTEQ+PSnYObGFRWrrAcJAh0tDZEOHrrlSh9uhiWoco2kVEXBEoGFBD10Zi6DcvXV4fLOstOCpTlqzRPmpoPL0qbZuhcg1R/AzK8/Ce1cuRiuzCkPpVNSzJzg4facgCxS8J3yW3KicKD41UzzxUuPIVSKBwkigeT6C/Dy80Ajx3x/dgrpnIzQqMj6Tk+DZwRcVrw6ZoctgITiSzKSdBVUgDRQ3defP3NLjaIxCBYrMJj8d6ybsxRAtlSLqvInSUCQqz1UxdTBO1lKKkVA5lFDaWxD3n8sWOJhXyeMHb/Yg0QN8bPO5uGhOAVr6oBLfl8FBwpRMM/kj3aUn55dmJQYXmEy5znKZk8go2PWwEgNVntgkQcHCk4dHcdfrexG6Lj58yYX44d5evDlYRcQTjz4LUSpUyiqOtOvBe5dzTOkwNJuunEga5c2imFV6k+M1JPOhi89ffx6WlDWYgjXQcbIpIxQ0s4Bm5EMPExgOb5Ar8wNjjeUJxWu+jAGMkzwe2tmLh57fgbrTgsRmthECDBbES4pl2YjsvJDpKGazUounALRkNqkIbpoz1PDrKJQc6F4dHzh/Oa5bXEHer8OITQFOXSuUUm46qCPjTWS+n7yWlKc5pcQ9QfDyqGuWQEGtSBjghYaF/3vLNvgBneZjuLEpmI9mqSFIkg2mWS3JazLlPCsHZxpf8R8iUNz5fXHh9rmgJ6aQ8w6HMG0TMU/YhOKlAtyA2EIsU6oUJnGsB5ki64q/CzOwYSQuruky8YuXrsWLB4Zx13NbpSW1uGzj5y++ECvyQCH0hGUXyGYnK5GbklGeyDXTk/TMk9aVCiaSHqamNdQfTFgYSSqZdUWYRvL854zRdLxNEir9B5uQ7Bj4IeqOhZ1egm/9eCf21hswghF8ZPP52NzSijuf241XR7iMm7A0D1pIJaKOwCA5iBtbRgyhXMxLfU1yUEbOUq01TbQl5GFwQ/PEtSQ9Z/4RwDJL0PwIX7/hHCyzqK6ke7SaVMaSiAGHSbLMuUjLOLaWef2i76AaRQN8LYd7d/fj3jeH4SUeIpvtQVLVLcEu7FCDnnPEuId+paqDlDInp2wyRYBT1DQWWVZErCUS/CFCHq1hA++5bA2efv4NuH6Aixa14BcvXY3S+DjyZoyA7EgO5qEhj8ZyKlWJyvWrMo4nuZV2szhOUbBd/vlE14zVMJ9xAAAgAElEQVQdnJSZm3ahxHVcAGBV12iCJSkdDlmeck9I9zYYrHlXNNT0Ah7a0YMf7hpA0PTwqzdtxN8/+jx6hQVbVEC8LGOheKUZcYz29nYMDQ4p2vgEf+Z40TOS9vW1XYU/+s4HztDSo/vOhw70m+3dPincwqRjT5y1Jm9zJDbxtBtjKtYkaMk4IPqNGVptEqJD2NwZ8HHVfAsfvXS1mF7tbIT4zkt7sL2/D3nLQndbC9Yt7sQF3XPRafpwQle8J0ibZl2vwKXJYchpDFJ/Tt4B63txnU0T3nS+g4QFPmim1iwL2C9neWFbaAZAaBUxFtp49sAAXurZg71jAbyGhg0L23HTuk4sbzER+wbueGY/3uhzsbarhCuXz0ExUp2Z0FCWbqSbS9eBXAyi9TJX9MiUlTgPT1tKs4kl2CwDdMA1I2ztGcdzu3rxpRsuwEqpwRpIqF3gCW2Qb8Iuk5JEKyLT0fde/Tef4Xd29uCeN0bxzvO6sWhuDg4rDeFnhLBiblhdDgC2s9XrSMqmYtyzm6NcsqUbExgw7BiulWBHX4gXX3sNH2XLVrPxT0+/jj2jNbS2FHHDupXY2JXHvKApIxDkRBfinKRIIsSiKbAM8mEmmo4mUOSbzEd8cvj0BG8lLWQYtAiCK3xIXIZELxJbaugxBWpGYkpWWLMdbBsYwgOv7sHuagNtVgm3XnYulrSV8Jn7n8R+FKEzkkpGNvXzSfOju3eASrmCWq0mM2iPfShmgSNGPvIZKO78zgfPUJn54i8/JOa6gZGlyDypApgcK0+vBCFThUKmElqwrMmpraNjRFkRY4WIrQR64EhKd/08Gx+7ZBmcoAHPyKNGBLp/FA+9tA17mpHM/WxNPFy0eB7OntuGxZ3tmGtSSxYIfUudI6kF28TUc/qlpezGCXu09BrTsYUGXb4tqgoT+OKQZGKoFmPfcBXbh4bwwq6DGNErMLQGlleKuGnlclwwv4CcUZWBRFpcwZd/vAcvD9TwzsUt+MiGlSh7AfTEV3M8YSn5Eynp8SQhWM3cmHzJtSemnE4kDjM7oOy+Zur40c4+3P3Sbnz+5suxgpQIjZwJEq8MyVoYNDN7wOm4EL5u4Pt7DuPfXjyE37hiLdZ3FlCkiUuiIbCIsdAHwoCZptKKm0L+yGRQk64NT/LEEkk4lZnM8GiZQ4Hfj/sD/O2Tz+M3rt2EiysWBhMd97y8C4/uHQKMMhZWNFy3fBHWLSiibCuyHSegkSOiBj4pv0/QsEdmcTCUqIJM5s+mVnjCU+VEMXmlf5+kIrFUHKLL35MsxwwxEu1QHQW81jeKp3b0Y1vfECIjxvldFbx/47noMqpoaCV88t4XcTBukWdAQFNZ4WW2RzQMC8RQiNdJTK7aUIOYjvfioZqLA1zbXbjzO798hgaKJV954ECf2dYdGDl1q0iQIh+fBric4BWEciJLCiZGkxk/f5qMgozNKETg8Enk5AS5Ya6NX794EUrxuHK5ginORHG+iNd7xvDUtt3YO1LDmM8jjf4GEZaUdaxa2o0FbSW02jlUHEv8M2mFx+yALViyFGWokNAbVJrIulSMaDlYqJlguNnAcOJj12AVOw4MY3gsQMQBMYmPgq1heUsLNq9ZivVzS2gJGjCjAAEJTEYOcajhK09tx4t1F1d35fGrG1YiTwm8uGGRb5ETurWvuYoQlOpBVOtvsjRTTl2s4enRqDojVJO6uoEf7KziX1/diy/etAErBaCgWIwllylZi+AUzChm0CWQNPfgjkO45/U+fOyy1djQacOJfWF8sohxzXSAMbUYcnnKE+PIt02dy5McQh0yl0N5iAYwYwc/GAjx10+/iN+5/hJcnKc4PkaQK2BHLcK3Hn8DO8ZdodO1OnWsW7oQ6xfPxVmVEiqIkGMoCKTGkGxTE+/MjHg9ea+yP2EGJGEita2T5rP8mBIA0pKAPYsqTOyrBdg1XMVzW/dgtObLc1vQ3o6bz1uMC7uKyDXHoRdrGDY78Nm7XsWhqCwmy0rTroh0E1eQljNS5Yru5HizQbI4FsGJfFzXXTpzS49ld3z3wEhpXnctNZrlZjMYIXOOqBsjttxSwdUkQWiGJSvKvwSeEwCRIyfJdfNs/Mol3SigJqmjFZIBx7kaVPglCPQSqloOb/Y18HLPQewcOoyxiFyNQNJ4MULlHAfapGga8qaFguMgZ+tpnZ2AM43DKEC10YDrcRp6jIaeV6MuEx9sPOQMG+25As7qaMWaRXOxuquEtoAbn5sxoFxMhEb0j3a1BG5Ow589tg/PDtVxzQIbv37ROXDYntT4cyF8nUIsnoVcdGrdK9DyyEAqEDFNcGSRB8ICDWm+Yhfw4M5x/Mvr+/DH17P0oISaLVB+Z5YqxEHSQDFRehx1tqUfFRgWHtjZh2++egj/5bLV2DjXEdKWGZnyHi47HDI9XUnlVYcou1K1PeXKiQ1FjrBEc2Es5ZKm+7B8Bw+NxvjHx57EJ6+/HGuKSvrNrI+gZE0vYWvTw1Nv7MXWnkEZ7ERPUy0MMb+tgiXz5mBhWxvmtRXQ6tio2MoKgjoYDrTMBGGKq8UMTIoWcIB2oGvwNBM1P0YtcDE4Vseh4Sp29A1hz+g4GnSRN3SUohjruzpwyYrFWN5ZQrvvwfLYVbPQKIToM0r4/Lefw+G4iMRUgUqLUwu9iduqhHrEWLjmjwbV35ZZJCpQXNtV+Np3P7TutmnTj9Pwl6cG8Z7kBSy74759A1b74ib78TyREwOWwTF2jiD3Qp+Vx5bqHFITkowedcyPlTrXRGh5ilYchbh+QQEfufgsFOGKvyPVfeyMxIkvQ1y4KnUUxKnItSK4doSaVcSeA2M41DuIgwMj6B930YgNeEyLObtB0+DHnhoYxPqUkAR1GuRDaIBFQZqtY34lh+XtZayYU8ZZ81uQ+C4KHDjBRcRNQXFbwIG2Njz6eVIewaDBwTuajq893Y8t/XXcsKgFv7ZhuWyM7ET0OEOVm/qIuJA+yok/04RjIBtW/CgCAY4FgLQdPLBzAHe9uhtfv2kDlkpG0oBh5sCBqaFBJWmGUbw9i5vqORGaNr6zow///GoPPnbFeVg3pyDkNrZN+bx8QwUCGYdw1GrLTnHGEOYfRmTBl2tOBEvh7JOClsf3Buv450efxG3XvgPrCso7hL6ohHPpPFU3WUrYGIuBtw6N4Nmdfdgx7KKqk8zGA4YUdJonh7BDXxTHHS1l5CwDpVwOOTERV5PIA6psaYzc9DFYb2Kk6YElMvksbkwrQUvwoTIiLKnYuOjshVjV3Yk2S2kvuO4YkM2YwrUCPCvAgFnBbfc+i369JH6qApdOlDiThY76t0wZPUOLlKKwyMM185yvP3jrBZ8+ya0461/7qQSKG/7ptTe27BtaU0tM6JaDRDOFMUeRFwlWqtROg4TkZzPRWdWpysUC04UZUMgU4opOB7+5aSXKUQCxFWAJ6PiIiCFIS04hEQSkCpQWxwnqTNdNO+2yqLKiyaVG7oVjImBnhKAZjx2lIZKeuAh5WB5wWG6jioIsBB0aT0YthJ/4Sl7MFqSRQ90NUdY9FC3A8yNoBjs1zGDIXzDwB1vewotN4Kx8jPM7SgLUsSaWzRGrmp/KlekqAyUFUXNLyPw0aJ2bMlIPjoXYOtLAHe9eiyUMnHaIIGDCa0mgoDM1h/oeK4+bGigiw8KDb+3FP7w+iHVdJXSUybEwYETMegi8sjOgQN3pXuJwHdP12ocVMVg60PUQxHv2BhZe6jmE267fjIsdZgKcMdsUHCgiXkQs1ovQ2qphpBmhphUQFCoYDIE3D9axbf9B7O05iKpLdlleTm55fIIfAX5EBmla4trktiSKlMfWM0sWt4miY2JeRzvOW9qJ9Qvb0J3PwajFsHVmIJ6UNIlYK/K9VbYg2ZnpY1hvx6e+/QL69RYg9Oh2mFLzZ71P3/6D/xECxcov3bu732o9y7PyoJs+NwkflFJsKiRfBYtscWX/PH6UVQmt4v7bkS4g2iqrgdtv3IgOjzMoxA8Zuk7GYoDA1DEcaRgPSA0voAVA3iMRpomAHRBHTOBS0VlGAmMGodJCOSczTICeEpxlSoFaHMGBBz9hCl+RWt3wm7AMoK4bOKyZ+McHn0ClUMavXHku2vQamjxPEwc5shiZ3Th5/OZ9T+Cg2SYgoxFzOnZebVqWEKEGJ1SOztO+UgAxMShrp4Arh8S0YQR1FDVLWK533LQaqx0OyVFELQrq2PUQwZq0OBlhjz9AmKXHvW8dxjfeqMLUePqyPcMOFbUgEcyUPjudqlOR3XhPyd5ktsYAVUYSekL08kMDLWaAT121GhtKtkz7ChMPOkHXxITvVtFRbMW4WOdTUt+EadBTQh1CtM0PA4jFQCOK4UeR4EUerQgNwugckqBeeXJcBKvRkGO5aTBYJHDY6eCsGN2ULJCALLEWrgOb3BqCsaSCiyRfdYvEddtuYNyeg9v+7QX0Ja3Sfo+FnZmWjCcdKxSF+4zOKFZ98e59xpK1i6uJjp7+QQXgKXatiGMyctPk4LqsfTX9xiAoyjafFVvSbSh7g/jsuy7EaocPOhCLu3ySp4sBqnYef/Xw03h+OIBRbEObEWNZ2cD6xfNxzuIu2EwzwxikD6m5EKrdyR66QS9m/pMOzZqD0MzJqWkGrqSloRljyCpg91AN1aEhXHz2YhQQYY+X4GsPbcGgUYHpjeITm1fjvBYbRjGvnLrcBsY1C6+giD/97rPwzQ5ECWtaajk4EwSIDU+wEwKqqoV2/Je09rhgaaArJJAcxH7QbELzmjBMB+9cMhdzg4aUNbzLBDDZouR3nux6HP8zyI94a7SOl0aLMCNXQEAjYeCzENgMciqVy5yljvVOYl0XE9DmqcGJWyZiCvs47lBvwgw1kZb/1iXL8Y6uHDST/pVqHgpp/sWSjsgNMa6X5Dgo5Qw0x8ektGBQV5kcsSlmfdQRM8NRkvqJclYOJzUDhG1a4XSQryI/EYvSk8ZISRKAKmZ+n6ZuozfU8MRzL2LDOauwolJBjm5bVqQsDWJV0g7Zbfj9f30SAzyOTJav7Pq8PVBkXqxy6KUZ2MSkMcmsp949smI9vHP+GVx6XPeXT7/aY5bX7h4al4Er0BgoZlFeTLcr2P0K8whzo0L4SVCSmRRryh4+cfkGLEgagBXAqEUILBtj+Qr+5xMv4pl+H1WCjzIcxhWcoaAbmJPLodWyUDYN2DxhOW3K0FCyTFx59llYVHRFMPX8QIL7dg5Bj8bxn1bPx9qOVjQSA3/1xh48u6cXeqRhc/ccvH/zOXixfwh/+dQ2dBbmYX4xwM+e3YZN84pSrhCXiBMTw0Ye/+PJV/H04ZqY2DApEFPXzMhZplalJYFsrNkcSRnOkPmOqrYc/9+SVjBbk8dr288goBBtA0s05VwtQOWUj5tsrc50oUrHorKXyeuU4onPVgtwRbuB375yDWxvHGZowfddxKaPXD6HYd/EPz61E3GpgHF3HG1FG6vmd+CcOZ1odQhuK9MeTkHLJTTdZ+g2gLAqrlQc5MBzxgwjGXTUNEwUaeIbevBMYCS2sHfQQ8V2sLSF5VWAV/ub+ItHt8Nz2tDtjeGzP3cx2rVRaAkHB9Th52LUjXbc9eO9eGj3ADyK6eRuTyXqHe/5qU6fCtgqcChxnVISU66Qi1xcu6Tw9fs+sP7MxCh+5huvPPfM4ZGLRmMKkVhxkjp86oGCp6xv+RLJWb47BlNfD+e3teJXLzkX7XE/iiUHNc9FZFbQ09Dx94+/gjcbIVym5OysEvhLJ3tz6aoor8xE5MFpMRYaNXzlPZuEeXn7/T/GNr0EEwFW6TV89qYrUE0MfPy+pzBm5JGPdJxnRfj4ezZi92Af/mnLq+jq6IIRDuOWSzejLW7A0upIdBv7PQt3PfcK6qaBptGCHYeG0aTYikzOlPOkXLiUxH5WtgUzxJEJfw5ZgzNt5mO/Ge3oTv2VWkIdrwNuAKWohl+9aDmuX9gGuzYKq8WCZdmo9zexz9fxrd2HsbvqY/+Yh9gsSNljezXMK5lY0FHCwrYSSqaOnKHJfBdDN9Fe0HHuXGZ4ETxDw2uD43i5/xDOqrTiyoUL0RIFGMo5+NMfPY2tQyFa4hgfu/4SLGvN488fegKPhxUJkkuiPnzx5y7DgqAJVzORj114iY69YTv+8N4nMFJqRRJEQslPCGzNuNyVNRjXpBThqdPABFeN+AlJhd32H33vAxeemaKwG/7muRcOWS0XbusdVFOgpQF5qi9uZhrZ8AabMLQ6Ll84B0HdxfbDQ1jcVsCHrlqHuXqAlpwJzXdlzoOr5bFvzMPz+w9j2+AYBpomRt0Arh4jJIApKZ+i6krQiGO0B6P4v95zGeyyjd+763Hs11tgxzHONuv4wrvfIVqST977ffTlSigEMf6PVUvx3pVzgchFf2Kj58BhnL9oEUI6besR9DDCoZqBbzy7HbuH+7FhQR75jm681V/FPnZdwIlTRGJ5NTyNMuOamdh7R93TY5juTFVHHFPcNgsgWYHCp+klKXmqmJ36lloCK/GwRHfx25vX4eK5JYz6/bKB5jlzsK8Z4J43DqPH1/Ba7xBGRf5OIx41lYtYAkFrGf9ohYIlMS5WdA+/snENNnW248BwHXc8+gqGnRxK3ih+e+0KbF6yAE8Pj+IvtryGhjUHBX8cv3ThQmxesRT/+OgzeHJEh+Y28cvrF+LdqxYhHyQI9RBmaGOXbuOr9z6M4agAzy4gEnNdknDUCMlpX7wPpH9IoCCXI6N9Z7/FLksD1y0p3PHALRd+4TTd/eO+zek4Ck74Gs/+3F17reXrlhyuu2ILFnG48EmeZkd8OAtxOXlpgerixjYbv3jFejzw2k48svOwUHGvXrMM7z6nCwswhjhsILKocGRGQzEVwMkQI66Lvlodh8arGGx6qDV8mTUZBwrB37x2GTYtKCNAA/dvPYBH3uhHWUvwgavWYU17WVD7XX6CV7fvw8qO+Vi1oARbH0U+Z2GgGsC2ymiJddRtDYfrPp7a0Yd/39GDZgzccM4SvHdNN/7ykWfQpxUQmgX0jNTgCkdnagt05pJgVg8mCx6n4/6nWcmJqmmPvM6jcSh19LYGLq47fxVeePkZLF3cgWtWLMO6Uh5mcwhzOwvoqQ/DjwwMhxZ2Dgd4blc/9o/7GPQS+HYenm4JpiTYhs6gw3kmEOD54ryL37zhCjzxxnb8zVv9qBt5lJ0A75tfxLvWrcSPekfxL8/tQV0rYk4wiI/ftBFLcybC0MTjO/ejbUELNrTl0eKzHZxD3YqxrdfHXz/9JsbjcdxwyYX40Qu7MSDrjGMPlRZoVoEiUwxPPO5ULU1HscTDVV3mV7/7kU1n5lyPq/7uhZef72+sb0i3g6c0SQSnIWaRqkzFY0LzUhKudNx6+dkINOCF/Q3c/fhrGKMHgBPhqnOX4x1ndWGeqcFKGB58EaWRCMOSgpuSZCrO5WAlIxoBnkok6sQaAiOArvnwjCJGtQJycYjWoCqgYR4OXNNE049R5gmW1GG32BgbHEPJ7oBrFNETB3hi/348/NpbqEdkgMa4ZdO5uKSzXYYXfeWZN/Ba7yiWzOsGacO7e3vQELU57eYcGDFBx5RwNauIcLwfmknSPGOOfEqfPvnLmexcXY/yiwAiz4NmaOhMqvidK85HXB/Hv771MvLzFmGFb+GWS1bDDsaQL9nSSh0drSNiazVXgq+ZOFxvYtfACN461Ifhag2jIRkjrP0jNMgZCQN84qZNOLdsY181wJ88/CL6fAOL9BCfvPkSdOsufKcV//zk8+gdG8aN56/Dus4OODIsKkJTDxHZMSyfXuRF9MHAv77xBrbsHBFF7kc2rMDqNQtx+789joGwQ2pbyvaDmQYAidGPymLlCYhTPHkjbN+ydRujGDdxy8Zlv/7nNyz669P0EP7XyiiWfem7O3qsluUePSVkktPpSF2p9VBTqhkoGHaunm/jg5cuQTluwtJtjEQ2/vnxV7B1pImBlGK8rCOHmzauwupKERXXh2NSRERCUzoFnZ4BHGhsaAj43iG1jAkaFkfY85Qy4LK1aOpwSOry6dwdoKa5SKw8Ej/GnPY56B1xETlF7Blq4t4nn8WIV0fnooWo16o4q1LAzRtWoqTV0GLnEYxquP2VfXhjqAq76WPpggXSstw90I/IKCEKaZrLa5ri8/CTXik/8fc/MlCQqCIMSrYdeXoGvfjTn7saawsOnh8ext/86CV0LVyBZnUAc4o5XH7+eiwMh+GQUWtaQvMWLafAOQaoFo10C5FJxTJgU42rmaJ9aYmayKGJEd0WY6OD/TXMq5QxL+/D9KowkzzqOhEBAr9U81IxynVL0osLXctjwCzhh/sH8MPXX0ezFqPkaPiVK8/HFW05DFh5fOLexzAQdUq5Szq9HD7TvtT9mAgUUgIqxixJXTkAaxcvxNkYvP0bH7zwyzO926n+/Wk4xk/8Epbe8eC+HrNlMQU1CrY/PRgFTWDF5SjJwY4D3NiZw4cvOwcFuNCDqrStxq0yak3gtZ4R3P/8dgwlBeiahbwRoZALMS8f4uK1a7B8wVxUYg2OH6OoATZFUmzGCw5Ccg47BY4S+SQNxJaNiFyHwIdL8ZEVox5aGIwD3P/EFhysRvB1B27oY+2Ss7FEG8eGxYuxcmEr8kkDZrWJJDJkQrZmF3D701vxylAdFgVOSYTOdg4E0nF4cEyk3YILiALxTHllbRfldiXM14T+kjy5Y1y0uA3vWzEPy3UXTrmE/YMBDtdiPH34APa4HnpGmlig67hq/Xm4eNkcFEMP+bgOi21fDlrmwiCxjwChTlSMuhIHfuKKXDshtd3Ji4aGpj8uGyJhHQXJdE0RtvF+R7aGKOChkcd40cD2sQa+++jTGAoMjPoxKpaNd69YjmvPnQ8nrsEM6xjJz8On73kch0i4SgcRzmwXnt6PKb6ouhbLEOmSZWDxvPkY7T+EjR3Jn9196+bf/Umvgp9KoFj85Yf2HjZblkxIadmXOuWXmlau7NZsGKjj5rkGPrxpDSySYERLQcUfzxkdsZHHeBDjUC3AC/sP4ce79mOMP0GZOW3s9USEYEXbQE6LheZbchzkCzlYliWnCrUW4svQTFBvBhj2PTTpocApUs0GVixched3bEWY12WEYasT4fJVXXjPuavRZnLytq74DEYkg2waNZq7WhhDhK89vQcvDbM1p0BMBzrOXboMW7fvgGuTp0CUTkmWz8gX+RexL/d9bkcbHLcPH9twPi7IWyi20+zHg1uPsWe0iZ7AwDefegE9WkFwhzbbQbtt4Kz5rVjT3YllnS0okSUbJrANDzYYlAmiU7DWhEURWkK7f9LwQ/EpZSs1inTYVh71iA5etpQLPTUPb+48iH17+zEQGdgXhIJLdoZN3LxmBdYvmY/OQhOtgQWTrt5JgGGnBZ+961Ec0FpTTofizM6IURzRAVIWj2bo4eyFXag36hgdG8A1i8p//O0PXvL7P+k18FNZZV1ffGB/v92+KBTjGjXjYqbXsX4kY7dlvyuiJpJ9DPbdx3BDp41f23QecgH5EaYY7jIIxDlSqgM1MJZGtKaOWmxguJZg0IvRP9pAz/AwekaHhe9fD9n5NpVSlAmLHC7UGqhJYCbJQpz6LcZNLopWHWvb5qO73IJC2UFbexltuQI6csC8QowSKxWTg2Bs8UqgC3ag6WjUgchXIwm//PQuPD9EuzdVlpWdHBZ2dmLH7j0IHEek65lJZEbKmeke8u9ncatn8zZv+5kTuYapv5zZD5LiLYOFWfbR/yHykYsCtOVtRLEP1x/C7193Od5RKqARjqKu1TG3dT7c8RBeYmBEc7C72cDuvhG8vKcH+8caIkhjuztvGsJ/KFo2ClaCcs5APpdHwbKRNzWYktka0IwYceiiGfqI3FjEYMN1qpo1DHouqn6EZkwqvo8WzcAcC1izrAvnds7D2a1tKBgsS5uIjBqSqCBEMU2PMGS14VPffliYmUFkQGO3KyHB7cjX1PVM53N5pXIGJSTjcO0Qq5Z0Y/e+vTJY+8rFua8++KHNZyaY2f2FBw702XPEj2JiqO9JLc/JX1JDZJWXAbkZJpq4bo6Gj25aiwLdLkTJSeZdDo1wGKZjI4nypBxxAil0M5KZGgQOKW0PDV3Ynb6uYdyNMVZz4fqR0J493xNyji8tOw15umPZeeQdG/PzNuxSiHjIx8Kyg4bf4Ahz2GxxeT6sSgm6XYQVNKFrBE5JwWkIN8IL82i6atjt7T96Gbs92u5x7xiYN28eDvf1o+6FomhMeO9op3aK9+1/hV9XSbYKkGoEQIQygBXdXYiDBmzHQM/e7fjoZRuwqWzBD2sodpbg1TxoyENnFkDXLDa9TAsNzcBgI8Ku/lHs6htDbyPA4fEaqq5yGaO+g0FdxgFSKCgdL+XBwcns4mBGPRAZsFRyBg2ULA1zWlqwoJTDys5WdM+hItUQfKMUaYhCKkkpP2vAs2gUZIFjIyklGLVb8Hv3/Ag9cUsqV1ADoafPKFKilURSNXlNiwJYsYeVi+ejb2AQtWYD71xS+tp3P7TxzFSPdt/+wIFeZ46y68+mf5/qiiU9lxO3KADTK1Lnnu+M4rabLkXOj2DZTD3rMDnBXItFTv7igRGMugkWdpTRRTDTMVBg14SItljfEZPgxk17U7zWKIGjGxjn9cr0MTJhcuK8bGgchMwWHIe/VNCe0zFcpSqT2gEfY3Dw1K6DOFytY3lrCdeff44M2SEjNNEtjNZCoinwzAT/9Op+DGhFBKRCw0RP7wCGx2uITZuidEU/nhEQO9Wberp+Pz07BT9KQ9uUCKcGCrO8oobDh2HqWNXdjUZtFL1DvTh70WKM9O7Db11+IS60dVh5C17SBDyqbnOAEcGTkZK2MtqlqxX9QahehQVf7AANVMMEfTUXvSPDGGo00AhiJRYkFVwmoFP7oYvWw8iZmFsso72QR+fcItptSg7JXRfG7PgAACAASURBVIhQCJRcP8oV5PCITQMFcjLqdbi5SD6r6NPGwASVvmN2CZ+763EcCFoQm5THEzfht53mlaUXMmle8XcIsJNL0ll2UG5twZ4DB3D1ksqfPfThi89MjGLh7d+VjCKkWcxpChTicCCWb5Tx5sRIphQcxm03bcSGgg3HZ76vwfXZx3bUMJtvfg8juRY4YYiS10RXawuWzW3BwjkdmNtaQEs+j6IJOByrJ1NsYzik9fq+6C4KWoxmZGC/b6BAablNlSrnaufw/EAN/cOHMVYN8J4N56NgBvjWtr144M3DWLZ4MdrCcXx00zk4ywoQ0kotTOA3G/BsC/1OEXc/+4YEFhLC9vYOY7QRyKg+NU8jnfNxzKkdp2tzn873SWml4kchEfbtJXpC6/8AOWFvB7AdE9XGGGzbxqply7HtrZfwnzetwlUdRdgG2ao68uLIFcE1EvTEJbx0oBetpbwE/lYnQY4YB4MGW9pU3yb0uWAZyXLPQUwiW0IaO82AmCEyWNAXQwoRGJSLGwYC8WtVNn3UzZgU6dGOwLXxnWe3oWdkEO/btA6XV4qUA4pqlDyNBhW5moFD+Rb8wT8/hUG0Cs5AYR8/e7qXiOQmvDsUC5caEyt2pcRZ0L0Qu/fvw1VLy//twQ9c/Fun82kd671+Kplr9xcePNBrtZ/WQCHlXEIrEgpyYvhkcZtNbGgFPnHxenTFgaScYgoSRBjIt+COh7bgLRofMLMJQ0SWKXWgQepvHCMvxi8+LD4gGqrYBjoLJm659Hx029y0Nv7miRewpW8UCwoO/vPl5+OcioVdsYM/vO9JdC+bh/09ffjQuStx6Vnz8YUfPIxtcQeKjSo2LLDw8XduRFvQRNUlX8BH0YgQtnXir5/ZhgE6V2sOdvYMYdiNEem2tP0kEIkY7LjijJ/0mjmJ91eBYnLGyBTmpWQZim9HIdXq+QugRx529O6RdvT6Fasx3D+EscYgbjxnAX5+1RIUI4+UApg6wcsm/JyJv3tmH37QUxV1ph27WNqex7nz5uDchQvQWcwhz0HGOj1QmS1qaqixzJllMGki1GOMsV3PjlIMVAIfjsaxf3QEq+D14Tr2DI1gxZwS1rYV4CUmvvbwS3i5xkMpxNULdPzWhedJR4XjIjh02rOaiKIC/mHbAO7e0a/4HYJnsfSZvmOlTIz5jDPgk0BrDDvxML+tJHhO/2A/rl5U/G/f/cjmMzRQsPSwO05roFDJLR88gUYlk6bHgt2o4squbnzgytWw2DJLQpQaDQR2AS+HGv5+y0s4MFSFZhbhajRO0WRwDgf2kt6ckG/Bk5A1sKbD0hrYUGni05dswP7xAF98/FWMGhUU9AiXFAL87lXr8IO9A/jGC9ux5rxl2LZ9F25dfy6uXNSJR3qH8C/PbMd8M8RHr1uDLicv/XAqGSn60aw8ntpzCE/0DCOpdGDHgV4MNSM1S0MG7NDfgd8tq+pPkMJ9Elv89PxKFihSN2sCwKYpUnC32ZAuEr0/eQrnaUfYNQ+hFuPgoQNYumARHJ029z6MZhXXn9ONSxZWkG+OwA8d5FvyqIUN3Lt1EN/cPgjCfaCDtwDVESxmJ0mD9kToME1UCqYwZCtGAXnLxuolrVg7x0JOB3pg4l8efR27B/pw9XnL8bOrlgpB6omBJv52y5toxAUs1Rv4g3dfSRMR3P69LTgYtKK1ZOGdZ1t43/KFsBwDmh7CrtYR5ByMmy34vW9uwSGnkHZGlWv3TLoaFSiUfZMQ0KXODEWhu6CdpXWEkYE+XHVW5c/u//AZ2h4VjOK0BwqRjyoDmciRWu6C7rIYmhzoa6K9bOCj792AziDGHL0BvzaGyCnBRYGTLFDVgOf3DuLfX9uOqqds4djeCBUtTpSjZADRtPXSRS346MY1ODTk48s/eAn9hRYUvXH8wqoF+NlzF6FP0/CFe36IBV1lzIkSfHDjRZirVeEViqhrBWEQFtEQaTXt8iIzRj3XhvuefhO1MMSCuTZ+fLCB7QO+8qqQ7pCaq/n/30BBeCLDejRxGNPiADFLRU55yzkIRqsolPLwvCaWdy1EW2sFb2x9E2d3L8ZIo4qh4SpKUYDf/JnNWF+OYAdA0/NRtkOMoIh/eGE/frxjLwIrB9egW2ZBAj1nadDMltBxrAXwdRdGqIsOpEMfxqdvvBSLiwX802PP44e9AcK2MvSRvfizG6/CkkIRv3v/A9hqtEIPcuj0+vCZn38nyo6DP7rvuzgUFlBxXdz+/muxLHGRBMxMxTADO8wyvvqtRzCuFQGrCD+MEbDbZRKwPdoK78iQnE2tSxMuefzMhOjY2ZK30TW3A4MH9+CiTvNP7/8/3/F7pyegH/9dfjqlx08wULAnzlPFSHxc3ZXD+648D/c88jpeONQLWvleveIc3HDJIpj1cVToL+BzDgSDC+O3jUaxgPEgRI2zMyM2wmJ4MRdkAtdLkAsDnNeWw/x2YMwL8b3XD+OHr72FjSsW4JaL1qHs0cDWwAFoGPVHsLKjHYWqiyh0EeYsBCEdmkqyWMmZGI9C7Bkbwct7++EHNlZ0tmDjsgr+/Kk9eKnfk1kVZBDKaADa/0/owTNZ9k96iZy+91fGO8oMmK7gMf07DKCtUkYxX5K/6xsZlIzO8iIs6pqHXCmHXbt2SMB+xwVr8fKPtyBfKuCXLtuAjXMqsEMXpbguBjYjTgGjIdDbDLBzpImHX3wVYwHBQFNAZngENnX4FhkUOTEmyoeH8aWfuxJdTgn/z+PPYstAgBrd2f0x/OnPXIMFjoGvPfIsnhxyYWkOLmrV8GvXrJMMshYmONCMMa9QRIdLLY+Gapwgsluwt+bjzx96Ek1Dx+XrL8QTr+zAqG8hsMiVoSnQDGBm6iWa9mbUuEtmyzJcycOcoo2l7RUswvCX7rr1si+evqd07Hf6qQWKw1Z7N23UjjvG6mS+uW6IMSvxCdrPXTsvj9+4dDmQBHjs0Di+tWUHagDmlYEN3XNw1dJlWOyYQssNDLY8DTgeewp8HGrOBIFDpSBVmaMZ67ADDb7hchYyvKSIILZQsJowwjpstCMgcBpbiAphyu6zZehPI2gKqh5obegPGnjuzd14o3cYhblz0a7HuHbFYnTqCXL5PL70yFt4ZcSVIBHI7JOpjyqjvB/feepkbt9P/ncyHQeLdB8Fy0SBAHO9SuoT6lqCfLmC0AsQBDQHIv29Bf3jQ+Lo9fF3bUTcGMc/PLlV+AgXz3Hw3svXo91MUArYdfKUga94ZJgi9x71Egy5AcYCH9UQGPYjjLtVwDdltEd3K3DtwlbQzfK1+v/X3peAWVaWZ75nv3utvS/Q3dCArDosKjTIFuI6atRJ4mRmFFwy0YyORg0uwRUTZ6JJJk/iJJk4mbjEJagIQiQqQoziAkEUhYam6aa7q6u6a7nbuWed5/3+c27dqq6qe2vvwnueR4Huc8/y/f/5/u//vvd73xB/+90HMd6I8aLzzsLV20soxQ2MaVk8MDzK/Cee0duDQfYExXW1HbVz0q/kuJ6UaPebJr5y/8O4f38Flhfi5RfvwjlnbcfvffFbOBaXqDeooN8dFLZTHVxxsGleikzsGomLGhiwYvzaBae85hPP3/Gp5R671XEU7/2aqJkrR5GUztp107W1hIJVZ8JQJgiBUL+6OY83XrILGZKIaA6GPeBrD+/D3XuHUIkt9EQBLtjYjwtO3YAdG/vQnwtgBQEsIWEhQxFr60yAsbGLKxP3llTBiqD5TGIBPjk4Rd7NArltmBuJmRQLdbhmTWrrnm/AyuTQcOt4cP8I7jrk4hcHj8nv+6wIv/HsM/Gczb1wvLKIB1FM5kP3PoEfD9eEkaqpy8oSnrSaJ3T2ifJIW9Os+gktwj8SFYVwdE00Tt3yGNYPDKDqE6tSRxRpyBULAnWvU/1MPhILudDF+64+H+cVNDw45uGzP3wEe4fHkMvauPL0jbhyxw5szxN1GSOm0yCSUjTPIsG8UOuUeScG71IhS+YdYdFk4WKkRvEfNwEBki/TYT4oCgUL4bPSJFIqiZQBkZuaLqVQVtmGKzF+cHAYd/5iL4YC4BRHw29ceC4u2VDAmGXirV/8No7EvdADERBAKPSEcxxzfg+0SoCC1sA1W7PvuuU/X/KHyz3Eq+Yojth9WwPREOWgLdFj6CyxBQhFGi/GNRtzeMOlu5ENK4Lzt4QrwMDjnoE7H96LBw8fxfGAql4Z5BoezttQxBlbitjQV0JPPoteyZZzQ8LViopf7NZUOoO6dJlyO+AlGgw5oXf3ieWAjaBuYLhex6EJFwfLPh4+eAhGXEeoWXh4zEWfbeDijb24+hnbcfqGHNzxcTh6BoEfwcxk8d5v/xw/GqkiYEOa2EcJFatVJmU9WiNACnFuk6xVtFtPNgO3PIr1vSWBaBumiSeePIRy1RWNlUwpj2PjE9BMcnGY6PGqePevPAPnlzwEZhYTWhF3PfgY7nhsP8oekImyeOap/Tj/1AGcOdiHQUK1/SpsOn3ylmq2aKrEJlXuU1Gp1F8kSWFNF9ZyqTUkAj9CQ8h+Yoo+s2vYikilCzPKouzr+EW5jPuPDOO+Rw6hEuoirH35jvV4wXmnYb0WoRTVMZTJ4y3/eDcOM1cRqqpHE3m54C+cdP1VXLc1c/NXX3vZ0xSZ+V7iKCgA1OoolqDBSTeknMkVmGpRV27K4g2XnYFsUBFnZLHjkjJ7tg0vjuHGJn5+tIbvHxjBI8MTOF4Zl9WBRXUBt2iETpvoyZroLTroyWeQyZjyzZoxtSUYdYTCmj3qAuNeA+O146L/UPNYs2fCjMzX1KJoYGdPjIu3bsau7aeiP2+i1JjAloIuuH3oBQSBDWgWGnqIj9y7F/eLoyBxa4LOS6jmmnRX7dB9C56ES/zDhHwlJYokzyVtyWjC0WKctXsX4kYFBw+PYGD9NozXPRw+dkzQk6Gon9souOO48YXPxDkFqqWZgKsh5xRw0I/x7ceexHefOIan2O0XATlo2NzTgzO2rMOOwQw2ZW2sz1vIMj8AkggzStSFep+kyLJMKXVIhOy/oesXoSLmsYnUNQT4NlHzcLBcx75yhJ89dRyPHT8K1+T1Qmw0srh0+2bsOX07NjqkU/TguwEypokjThFv+dI9OCzi0bxRqkM3l53bfA9xhExcx69scm7+6g1Pd0dB/EJCM7c0QQWh2670Y7Dr8ppNBbzhuUQ/sr6u8scE0DAJRYZmzQ8EZVmPY9RzNoY9Fw8fKmPvE0M4Ml7FWD1CJQDqTHRSS8JiI5FCbJIzgvT6JKYjzNuT7YohylSOXZNGMsK5qQh2+vp12LVpHQYzEUyvDlvTUaB+qd1ApV4VBu4otEUbk1T5DHM/dPdjeIBbD3EU/NLS6EHxjStKtLUSUSjRALXJVDJ+lkgNkqhW0e+z03PLttMw6sY4MDQqmBZalyVOoiyz/gTec92zcHGWIjk6dIeVIE/g8XW/hppdxN7jHu57+HE8PDyOI6Epsk+sVun1KnoMDVt6Chgs5LF+cBClQg6OqSPnUFOG/aHq6Zi3aDQCIVSitsfRcgUHR8cxVK7AZYGS+0U9K1wgvVYNZ/Zq2LNrN87ZuANsCDC1GuyoAY3s4SDDloERqw/v+MI9eEpndDStnX6BPplbYDuo4totmQ9+7frL3rfAy3T8syWK+Tu+n5y49T1fPjDkrNvqi6OgItVU7Q7S9ochuQTm8XiMGAJqZtREv5JQ62s3lfA7z34GSv4EPC0SuTrFEM09rCMuhbtY5iAcbmQDcgU0BIXHPpQGHPi6jaof4NjoKMbLFXieJ+S29bpSgmJ/gp0zYTs6+nMlbCgOIGcCtvSWsNHJhcNz6rE4g/FMDuNRKPkRuMdlexOyVEYtERBIVINtOnj3tx7D/cc9xHROSnY72XFIF92kQtj8TL86Z8sKOtVRsJ9jw2Afxo6NwIgDbF9HAUAbB0cqcEnKw67ZFgrqgUYVb7/uHJzfp5x0zC0j+UcyFnSN8gjs+iWpLbVBDAzVXPz4iSfxo/0HcLQWoMqxJZiK9ZYwECU4KrwRy2EYFHpmzoD5ENUIQtwCE6wkM7KJ0KT4tQWUjADP2nUKztm2Haf25lGI63BiAw03huVo8OKKko0wQ0lCUxy6mh3EOz5LkWI2LCp0Kml+ZzuU6tvciWo60Uzk4pqN9k1fe92e9y/3wM7jS1y6R1GOYnArP0KRuRcVakVeqxYd0rTPs/wXa8gEFgKzDp9U2qGG8zPA+174bPTUxqFbKrFlBSZ02xKa9b++67t4rOrjrNN34trzd2OjHiPnlpG11R5WtBpSNlOR2GNOgq2jBjKmhWojFkEgrkgl6lkErpRUe60ejIYBqroJxzZQCGuI6yH2I48P3nobRsIYpdjAh159HQb9cVimIy3NhBITeFXRLLz91vuxj3KAohmhDCNK6ZLI5H+ohqa1caRyz5MRBVfwrG2jUCjgyFMHsHGghJGxMmAV4FPzlN6b6MVk21Js1PCOF5yHZ/XWYVOwWc/DpQMyTJieL9odLHOHnousI4QCQm7b0JhhyiAMNFT0CJ4FVFwfh4dGcOjoUUmYVtwAsUmkZoScoSHvZDBY6sWmgXUYKDkCK2e7O7ktmLq0vQg5EVH2MWEAdU1H0XBgVsdlq+pGvKdSfbPjCEdRxDu+8B0csvMImAw1WO6ejUU4HdG5/57zhI7i6k3WH9x2w+UfWO55sCozjY7iqD241ZP2XtWQQ8MpASD1z/lHFNxusA+iLglAhDb6G8fx7pc9F7sNDZmoJvgGIyKNTRXDdhHv//w/47A1AD/wUYhc9No6ikGAUzZswM5TN+HUTb3ozXKwGYnEAu0mSoe9CIWgBgpPTWT7cPS4i/44xLYSy6pVBF4Rt+/bj7t+ug+9hoMbrn0uenIWPvvgE7jtiRHRoNio+3jPSy7CDquueBJCC9kYKNs5/DQ08P5b7kVVJhajCdUUpAJ4VVlX4KtVGb4FzMkEaJVsPSRBqBsIGnXYlg00WGrWoYk4kyoFKv+Q7tM19DRCvHnPTjxnPSlnDHhiF8AJVU/E3iDGZ++7H9vXDeA5Z+7C+owOo1FD1tQR1j3Y7O2gQA93DppC2zL3Q3wGGcxEp4iAJiEkIs6C+BquY6FUsCwjB59JUydC6E8Adga/CEx87Mt3iajUq/7d2bhi+yCsoEY5Ovk9ZQy46I3mS3jzZ76DIaqUJVup6crz8zWqchT1XzZHoSofEkVE5AQIoFnzY71SE4sfkicYhjjOIhOP4aJ1Gn77ymdjXYMcAZShs6Wvwi1uwP/6xr/h+0fr8GxCqKlJSrHkiIEjNMrDxT5slj6ZJGXrumkihwivvvwCnO14Avf+o2/8AD+vZjDgR3jNc5+Bc7fm8ZOKhj+57W40zAFkowZedeEm7DljJz55x324r2Yh9Dw8uyfADddehEEK+vqAQ03T2MVBuxf/485/w6NVSEek8gUqrknJt2WXL6TM7Val+U6/5TlfRYyJTHf6zFRUc2x4DdLLsa1fNT5RJYz7b8LmVPWBz6TD8ENcsyWDN152Lkp1pSgWOz4aPqkLi/jUPQ/h1pG6JLLzRFxmHAxkLWzozWFbfwHb1/VjoODAkciA0o0UhYqhBb70ZZgxhBPkEGF5nov1WbKaueJMKkYW33jgcTw8VMa52wbxq+dsQyXw8eEv/TP2WltgBgGuW2/g+ivOgxFWJVHKZpSQVazIxFcfegKfeXwMNZ2dy4HQA8zGXJ5GGu223U1HsdF6322vu/zpSYU3GVFYEs5zLtC4JA4t5vNwXVdUzRn+Mwqg8STxP8c8Tns9BCqV6IrSaRT8cVy5fRCvuvh89KEuiSa6oBpMjCCLu39+AL84chwHxuvC2OxmHAFFyXMlnY6svQtCQrgnApxhVPCRF16JR44exAfufgDH7e3Iez6eXXLx5hdcgtv2TuDTP/oJwmwBucpx/O6ec3DJxkHsPTaOz/3wJ+jt78VvXnQOSrqHbBRIgxITsGOOhU//5FF85bFjiDTCj1OVchVNNBdktQ+BbRE0RB4NroKqJ0B5lPTcycaxVtu1/vtSuZrW6xBqHJFr1DDUP8kx2cw3kU1K9TpQFJhhuHKFSjhIPhCpSkxKQhGVCNNAX2MEv7vnAlw42IOcXpdWc02nsHIG33/sGD7x4/2oWxlKEouqFytSFIY0oobkGZywIdGHmbFRtIjNBHZvHMRLL9qBfOThkWEff3nvQ6iUqzj7lH688dILUTQ1fOrBn+NrPzuIup3HoFfBH7zi+fD9Oj56yzdxMLsNvX4N1z9rEM/bNQCHWqtCFqCjgiKe9C3c/I934XBmAyIKWMeuzC0WXdV4KfCcEkkmmZIaZtGVnWvGM+8Vurhqq/Oer7/20g8vj4ufvOqqxK6SozD7VXmUkyZ5HslKcJ+YzcDzfFXKFIw7Q0VuIedK8PBT4qQLlHaCNNHoIrZLduzz1xfwH696Ftb5Dcl2U9eSh2cY8IwsxgMdew+P4aHDR3G0XBaimooXwmX7N4GEkpsgzY2Pl5y7E7/xjO14YqKMD95xL8b0ARTqNbz6Oafjqh0DGImy+JM77sb+2nFcsmUrXnvJxeijNIARo87JAhNmUJOpYhgW6pqBA40IX7zvIXz/yDgqmZJAyiclt2aeBoJH6O1FpVJBFEVJ+Jycq9IZU51Ly191thOex/RLB1H2RpF0ukZBKHRwzLPw+eg0Ugj3PK7cfAn27+x0Qvz2r1yKnbYnKl4GAWkRKecc3P7YEH647wCeqNQwQTU1IysALo2NfkyOMwFY6EHVrUMLXQFgFb0aPvxrl2CTA/zlXT/FveUAjVBDJhzFn77kamw0TLzt1n/C42EJmpXD+vowPviKa5AzI/zNN7+Lh8ZinNWbx2uv2I1enQLLOaFhrOsZHNJz+NhXvon9YQ6uzm1HoqzO2oegbVucgSB/Q9gUJzJNlOvE58zxeWqkPGjQUbz769df9pH523N+v1gdR3Hjlw8csdlm3uoolMCvLmSmEYqFIup1V6oMmiR/OkC9ymqkmIpFDZ2hnk++yxDZsIx+o4Erz9+NS07bgcEolFWEPSFEVpKenz2jQrhKMlbWzzVD9DTqfohaowHXDyRMPXtDH5xaRVim+GE/dOQodg/24bLt6wF3Qjo9WZqLLEvwHORFkC2RpsMIFdW+Twi4kcWwb+Du/Ydxx88fw1BApiQbtvQ6em1bkQV8FYbo6etHtVIR3oSm0riM7MzDuxwRReu0ky1kQFIZAp10ONksGr4P3/Mmnd98KlocTb4bAwstxDYzlojskq190L1RcQB8b/JGeaaDMVjYN1zBo4eGceDoOI6W6xjzPNRIP2dY6C30ojp2TAiA2E5+8yuuwEBGw1/d+zDuHCLI38AGo4KPvuxqDMQ+vvLIQXz5h4/C1zN44fmn4KWnD6KgeahYDqpmATnKMsQVeAHnaq9wUPy06uJv7rkPT1ZIbJORGoaCwagIQshomp6c0WsMm1ysFitqdcWZ0YGjuHqLc+PtN1x28/w++/mfvSqOYsvv33JgyGGb+aSj4LdNZqMwCCR3RyMVCwXU3To8tyEIvdZjxpA50T4QdSipWtjQTBtR6Evrr0NhrqCOTWaEl194Ls7rzWOjGUsrsq/7CM0Yms98BEPmpFomCS6G0qqMKmE1iU4MEw6bfDQbo1aIbOyi4Ieom4YkOzUvQsbMwo/ZMRgo1WyKRDF/giwmYh0PHB7Gl3/0Uzzp6QicHsQBE7tKGtiXqGju4SF3Bo3FhmT2h3heIGraKdh1Juc6/YpLs/VIiHREi0JR7NPhE0afz+dRrruSnJZDDe68DwLcFG1dBM0MYLqjeNFZu/Cyc3ajl05XawiHCPk2hcuUJW4f8Om0dQt108TxagPHy3Wxk61rOD5Wxc5Nm3B2nsnOAPviEj79rR8KY/dV556Gi7flYftl1Iw8hnzS+8fod2L0xb4kSnXLFtIh27RRdSsI6DgiC//8ixEZ14lsERFZ1TlfWHMjzZ/Q/DMnpvAkWkz3FsPkokIaP9eVBaUt/DDZely9xXn711+353/O26Dz/MHJ4yi4J5O9KxWn+VGylq2hUGDOogHfZ3Ez2bOn5cKkAWjynZlbUCGm2vMy7+GohCB/E/kC7jEI5mk0hO/w8tO34nnnnYZ+Ad7EyLuuUKlxoom7aiKPuU0gh7uPqNFAw7aRhS00ahUrkJBRdwOZLBpVuBtkxTIRWBYaWigrCqnXxqDhGz/+Cb73yBHUswVURKnMgEYQEXemZgBCdUTCoJ3eSeDBdIjD4GSjrYqolasS5tOhySomZp2d/2BJHIXQyMk6KSujUDzGMQq5nKyOJH9pV8lt+xyidk5eBh8RhZUZqXguNpg+XvSsM3Hhzs3o0SIhLRLtCwK6yN8hkQjzIaqrl70ZBMhx25ezCqi5BMCNSUdnXS/CDLlNMdFj2HBD9efZKCdb1IiCS5xfwlcaynxiCbSuORgzCoLuvfXuf8U+vQiX1ZgIsHUbHsjpqWQgCcrjoNDh0R3wGalfYtoWGl6geDRkorezCMmVXFy9LffWr1//3E/M87uf9+mr5ii49ZjSFDb90T1PUJSabcFxuN+NpJ8/qFRglooSeUw3JSXuk7RYi+ZFstpJRp2ORNGdMY8RUtbLMmC5DfTX6hgIPVx4znZcctEz0Zc3ELsBrChA3uSWwRfNDjoQbiR4b24r+HFTeJb9B9JpGvgC+LHIl6zreHyige889HM8uvcwKqGBiUwGFdmacsJQD5OThpst9pAkfRxNJGbnwkgKg8UtWwG1Wk3mmU8FbxEzTiw1z3B/XrNJ9t+MIhQ2rJgvoFwui5MKpXqzyKkmPdZ09mzAI4ReQz32odk68lGIvsDDtmKAF+65FKewbT3wkdUIbXGlj8R02KjHvFAg9RQOPedLb/8gJsYPg9zavu4gwxGNiATVUDXZNxSjGFiSHA1kQxiizqjSZL+pjUoIfPbbP8B9JoeblQAAIABJREFUB0bgFfpQFXJ0A3rgIxMG8Li20HPGNjsLAU143MVpaWEAyzCga7G01vsJZFxl7ts7CicWkeK33HnDnj+Z11gt4ORFjt4C7ghgy423PHnE6tsWkjOTqEM5UmhrEqGSCTliI5YCTefzRdSqNal5c2VhYkzwBC0Hm3aaYq6JspIShBWkr4pWhDSXgB6OVwib/y2JQCYrSTdHSkNS7uuiJ5rXIvSYGoqmgY19vciXcrAKNnIs43FFiV3UKx5GahGOVCZQnjiKY0x8aTYafoAxBHCJyKJ6dqQjYEckJy0jqCgS1nBqYSqqen7UasVR+9d2eP+p21iJpKIIfb29qFWq8Gi/KSZK7rGwYZvjV6pCJNUrXUepUES5qhKsdBSEvy/64AcmDcIJZ6geqD0adR/J7WDloPsucpqHfGMc24o6Ln3GDlywazv6dFIDeIKKpEXJpCW2IheRF2OA26NqFXVLJbYFeBWEqJk+IsuA2dDQ0E24THxHOh564iDueegXODIRSOl0wrAkocqtQxAQ2WvBioXJBKGAMRh52tKJHFOQiKScYQTHUZwUYcB+oWSs6GVVMqONyUhG7OPqzfbbbn/9nj9etH3bXGAVHUX/tmZEwXJYwg04OakUyFXALwRiRTGyTha1CjtB+S0xmz5tAiZJTLVaK+cjiU2pyyf7Wy1MsslK9VxEQHiySU/vQw81wU2Ega8y0E4GdSZU2VIcsNTHDlXyIjpocMUxGrD4cQc5aTsGewt1OhG+U4wGg0wR8WGLON+J+3jC05NKDhOpSdiuVpJUDKntLnUS4ZyOIq9LW4URSszvNDwEpJ1Py5GKJmmJ55T66IT92jDgWA4aviddsIxmBHG72GiC6UWpWqgks7yDqILzf9znMFrgGHKrQSJd9t3QA6vyaK+hYSBjS2m7J6NjoJRHTzEn5eXeTE5kH0u9PajWx+ERYBt4cKt1jPgUq66h1ggxEQGjno8xl2hPS6I/Lj6iT0uwGMc3IoMWafVFQl3yELIPS1TJVSGK28AQGYvjr8MLIylvK8LhtFTFGdHOuSr+zKu2Z/77Ha+97ONLPKgnXG6pZ01Hz8uIYsga2EauhbR1WlUq2OPPSySlIxpQQmeVzWf/RrFUQtWtqQ9g+tNLFKEcABNfIkvHoF7i4SSL3GykYrKQH23SAi2DyV4PtZc0ScGeccQx8VOQ/hCuHILa4yTMq+tqdeGnMALyU5gIGRdLlMSVLiHC5fYifVhmWnnPKepocgfFXiURjxLCaXc0WyGadkiSiQncO58vCB7F831VDeEFl3jEpeJAm2hANpuH12hI9YXPz3dW90wxKbO/UVuQaWovskPR8XF8hUuTA8eKUiCkMAJ2knI2IZjq4yPy1WL/BqMbodgm/wRVt1Ti3CPqwTDQn3MwUa6p4SNhEEW0JU8VIZLEMXMbSQeyOCouVuz4jWD4AewA8GQOJPMwsmCG3OaQ7pB5Ck4LE3nHEuBVrU7GDG6pGMYmW0TJsXFdaTf+MezYxZVbc2+584bnPo23HubGbcQVqK89ZfxJZ/FMs5kJOn57PkqlEhoNVxKcAsahoQWU1VJDbe7L+WdJGNeM5pL6dTo4yYrOiSS8E1qMQrEoTiKQrQsBQ5NfmYJOJ9sDIRdQfRgStST/rT6J9Iadfp0nZF3a+Yo2f+9LzsKtu7Il4VaAE7IpGzTflV7sq/IE7LGQrRNFgdn/YNtwXU9IcsVJtG43VHPKIt9lrp8nz3XCwpH8QTPZqhaBNL6cPi04gv2lXoyOjooTUu5bHWr405ggnVPpeykinGaHLJ2I3IgAKzou3pdRZChRDDEmNZc4iTkOWdDmjipsuLhmi/6m2193xZ8vo3En33+5bzL9+pKjMDdto0K3UKZLcrGDiSSDoTLr+XxOHIXvJ15ZeCWTjbLcsDV0TwZWRiY1/lRtCVnNyUFhaOIkxsfHE31PbiDS0oe4+rbQ6bar40oZnFl/HSjkuNJzG5LAotOPthObT3nWJG/CiyaIS34EvL5sN4JA8nVCR9d0FGk4vVIvvbj7sArR29uLifEkx5JGos26TlJ7n/M2k/k2FfWpuUUlOebJ6g3yZraLGNq9hy4RxdWbtdd//fXP+6t2Zy/27zv4Ohd7ixN/v+XGW/YfMTdul6pDp44i/ci5XRDa+hg9PT2oVqvShq1Wydlw3i1RxXQvLXBh+pVQejlKpR4cP35cVmBmFGImVaeAX5SzmnMxWBWrnvhE4uIYbkeRRGFSqqSzkDJjInTcXC47GefEjmEEyzQlF1IsFlCpcSsYSI4ioOoW8yRT7KxW8pP+EAyL2ub2lPowOjF+QpdnR9u3JLDlliw1r2PbYh+2J4TEgyw2VxQzRerh2s369be9/or/s9y2XZXh23zjl54YNjeeQt4Ihmeq4j/3o6hPk2FcoLQhiR2QDHtBQZil12EyVJs6oLM4irTPBLGUqWzHRnlsQlib6T1YYZFw/QSU3NyJxnYNPcs1qCe0LlPMiCVmUeYOUSoW0fA8QbvKOicRxdzhbdOOEqwRmxLBsSz4DQ89xRImKhMqFxCzUKyATspmrddlAm+53nryuu1bt9slCJOtpyR9TQwMDGBkZKR5g9muf+J48z6qWqeK3zFsOyN4IHHQ0iE71SAnXmPuOcarOrGLazbr/+W2N1z5f5fbuiswfDNEFL//pX1D5vpTA7bsEanWgaNouub0ckkDURx46Ovvk8nfcBsSXciKKRWTJOMub5lMknQOE5jDc6IQtm0hm81gYoKKouYM5bzWPXar01nu4Vnc9VuyEcoxUPy3p0etaqGqhogVUjul/2y5rXz4ItAJiSJ8z4WuGxjsH8DRo0dh2orTUzGItR6tH2X7Cs7i3rTTX3eSK2kt1wOnnXYaHn/8cZUD43ZLFNLnjiglL0E5gojSiApRzMpGxPIogXQdec12NouRgYfrtmmv/soNV32mUwss9LxVcRRbb/zSY0eMdTsD+ogkG60SkZ0cSW4h2fvJC8TEWeTguR68hgvTccRR+E2MBoOCFGacKDAJ+pPsRgYcVjeq1eaHMyURN+MjtRvETt5j+c9R4LJJ/grekVuR1m2INCelW6mZJnAYwrRskOeS8HBWg4rFoiT8uFULIyJmmbVv9z4rYbN2EUO7Z2z9e/W8XOk3b9yIw4cPK2ebJK3nupLAyElPYNtSLUvh69xyTOqutpvv7RckJ3Lx/G2ZV3z59Zd/aT5vtpBz2w7vQi7a7jebf/8fHj1qbjhNcRAwM5wAjub8Yco11WJsyRpyT6nihYxtSzmQoCbdIifFNL1Lni7SX9y7RzBMAxnHQd1tNMFbHSVV273gyfL3abUhrVaoMEsmP7dsDfJyuGSHmh29Sag0exUk2NAVpL5cqci/iw6qwdLvyfLCy+AoEnuRiatSKStG9DkAZFK6jUNkHFsiD3atCkkNk5epmWeI3E60YHvHmgnrePlZ/dd+5tUX3bXcI7AqjmLjuz593zFry0W+OApqcJBbst1sUwCmpkeXCEGaCiQDL2XzKEIun1fOIokmJs2tVs6UNMk2dYlCxscnklo/S6C8w2yt7K3PtypmW8BcaAm1pWwbKY6IgMngpEW92lB8kbOEwwSOkV+SeQdWA8bHRxWAy9AV5oVNaLNm8FfaZu0cRftVejK3omaOFNLlA48lkpookxNz9vswj5OnkCnFjV1VBZKZK01DSdVIZtzi55ATVqPXX3n27j+7evtjC5gc8/rJ4p92XrdTJ2965+fuOOoMXEdJPTbJsPFGBIbnuJZUGpoSIAljUgIsUn+hIgv+Xz7D0qkv4B+Z0EL5zo7QCA5p9mJm60sYHx9LOvUSBJ2sHrM9xEpP+gUYdsafTJLaplsPaQNP9twEsEk1hDmLGYBelMyh0nuhpwfjE+MSSTB5mWIyUijKzGZbaZu1m87tFiOxUGJFda5ykpMCRqViAeWJiUQ+uPV+yn04tgXd0CUPxKKHJN5bgGfzx9bMNg8IMx/z3/uyy9e968L+8aWaLbNdp51ll+X+577/q3/609h+sxFkZRUnRT2jg7ldRftH4X6QHwHBldkMuypDNDw6C8W8zB078fa9A/0YOXZMVTWmXbbdmtT+KdbQGSwNhyEKPUXUXVfgxAo9RtixuA3YSbs/ezdSToVfZptxG0bx5LHxskQJwj0mJXYNtqX4N2oJ6VI6E5alChaH6A+PVUc+/IrCSsy4VXEUr/jzu19+y1D4RSOyJdvmEVY7J4F5Z6YQUt6kH4PTXPgsSALCP2OZMI6xbmAQh4aOSP8/tyfTcxK/XI6C/JHUqggVNJ54iKTFnhgJy7Rke1bm9iwp50lVqYVTgij2JYiiOxvgk+AsmR/E8PQqBCf3suRTZb6LhMFq20ssyTJ/WjGwLjh+eOgjL928EmZZ5reZ+RX+9PZjpbf960+Gtci2ue0g8GopGKUJkmIVQ8Jiia5D9BCKPV6GZeoCpho+NibNZBEbvRxnSqOebONXxSIrMdQyw6feiMFDqLg7aC8iUrldc+t1OBkbDiUJ6q5EaQqnwmAjqR61UCY8vW021WQqH6wyZesHezE8PARDN0UnhsJBEmGkTiJJHqsrLO3EIu3jen/0gcM3v/CZKzF7lvbp5/HE2Ru/cSjUspsCgy1QIuo+j1/PcKpQ6jOvGUKzKA6jGpUkVCwWYesGRsfG0Ugy1gpjoUsOI82jPt0dxUyAIe6jJwOESEBU7J4UPougAT8gpwXzPKplnNs12Z20oOV/mRyFNPexJ4ihVFDH6aftwv79+9EICFsn2pXykYr7tfVY6u0HSZk2BMc/c/jml7x6cR9OZ79e5NfZ2U1mOmvTe2//1vEw8zxPuqrtpkr3gq8oXAUJBRrpxRhZ8CsIA/SziaxalxWRHZ7sS7AdBwGbypLs5YmdmAt+kjX1Q5qIeIjI94SKkDwJmzZvxLHhIXkPj63U6SqaENC0Vlv57wIPWLWZtLLmlvWFixIZtED1MB2DA4M48NQQNNMRCHs7tr+OYOCzvFZKGWDFAU7Llt/003e/dNkbwpY+HprHmJ3/nn94276492Nl29Ji35GuzXY9FO0uz1KeHCQoIREIVbvIM1Auy+DSOdRqrjgRCbiFRr4DMqF2N17Tf8+sfgCTEnoakMvl0GjUZQvnB55MfEYUUliUqlCSxUmJalJHsaZtMI+Hl10atWuZkwA8zxXujcF16zBK9XWNVbVOqivzuOe0U6VUG455r7nitE0f/9Wzjy/8Sp3/ctXWgd/5x+8PfPYHQ4+OWZk+I+pBrLH/YPEGphEJz2BiieCgsTFV0uMGh6WuopNT7Evccyd8Bb/MzoJ5HZIJ88jnskJfZ5q6JDVJjEtQFsvLaoOYor2VWM+qTZ7O5/eSn0nMD4F91CNxRXsm4ScN1KI0wa7jKTomS/cIreJAG6NjPzz44ZddtHRXn/tKqzrWW37/y/cetfOXan4Bsc5tQCJiI888CZZNwLQdtI0p1CGVM/LZnEx6Jt+E3ITuPyKBicpYl2sVBAGBXlMTmG1xXys1Mkt2n7nLEpIbEi2VrJRIuf8mbkAzTQRRgJ684v7w2O+RJDWVSM90xMGJDyy5vKfLriR5X2rCGIYGt+GryCERqKKrFZ0VwtvL1cQYs6NL2uV1hN0iJZuWq6mEskQzOrApGnvHvg/9+48t2TRpc6FVdRTnv+dzb3gkXvcXDd3UyF5FclomhGhEnQpaERGDMXydXBPUDVUuY/LjVhEIa9jETpCBmSFzJpfFeLmaULHxjOQ1ha6NHeUhsoWCgLKoNSGke0LDn4gQJzN8krZkpYZjqe+jKNkmu181QWWSbFYUvGAIAM3JZVCr1+GnGgWJuSRhGYVSZqajcD0S+6m+mWbsp3zGjEfTUayh6EP4e6csHgmhL3TpmmUyt+Y1lDpbwhHaXOkTPpTeUg7liaooywnfNy8hnlXRMqoZOXshXvCbrKRQOYzkzaTvj01Elo2MX0XJHyu/dM/ZO//3i8+YbG1d6qkz7Xqr6ig+dueR/B995wcHR5HrpeYkIwoZJFKTSXengtySzZrZZiEnVdwxythJP5OYnFyJLPHl86jUa/DF8aQOIh0WtlsT3BXDyTrCypT2hkhGXxKgLSaZbh1VRVxDx9QvlI7QNEwh/GECk69XzORQrdekRVwmaOvrJxojot6WQuOl6zRtUU/yFk07z26atWQ3sUHi/bjpsnQdlmbAsixxqNNB/lMrGkqvg413Y2MTipuDnCti14SFLWFEm81a6ThQB1fxkZLcV9HosRFsmzH6mUc/9KoVqXakz7iqjoIPcdZ7v/DxJ8Oet/gaGYkVFp78FIR2h6DzSOnl6DimPq5qkqbCWATbtFAq5nF8bBQxiUEMKqSToGUymqCH4QfCfg5GE/y7vj4lyRdSJIhRhawCi02rnoy+RKEH2chFZ0G3UMjmhCOBJWU6CuGXpA0SZny18iniG/45ex0ITeY1pmQo2qSWFpPlX2lLNt894d/g/clVwnlDMSpJ7CYUB7M9mzjFKML69etx8PAhUf+ajGo74S6NYcSMJFTTJMv+gR3D8DUU4mp4RtHd890bX/6vK2mbVXcU13zg78+9fyL3/aozmFW0olSWVgI4PmyhDDPjhjiPlD4sfWjVqReLp8/YDo6NjcIUujG1jWhm6FssGvmK35HZaiI5mb0uFHOJs+ATtFKUJZuPVbfSwqZE2m/b3HwlwkB0GIUC37kmmSCxFXthiJWYditGYMJmRX2OIEhwFoFQ6yn1+IRpe45HlA3jGrChWqaUfIjwmpHYm3tVXYNPmr9kmyXv3CJCNf3VFfEvW2R87Ni5HU8+uT8RcxL6+KScPId3lVwEOTUJCEzkrIRn2sep8cg9j3z01y9f2IxY+K9OiuE7+6avfvSAV3hnlUKuDPXiQDxyoDniHKy4DiOm7B87D9Qh0GF2nUYR+nv7hHSGLMep+SV6nO75ZevAFSFRJEuawBhhsI2YUUboJ/wBze6wtessmHIgNoLJSToHlotZ+enr60N5fEz2zSI60/qxz9QVl34UyUrJ31fKZSU8LES7/KxSxOIsU+qkmGntPxRGWgYXGurMJkrrtBMr7+lWVs2tJNcwg700kYDgQsU4LcCpp56K/fufFBFt6n9I/jhtY57pkWRekv/DQcaK4foeTLMAu3EQ23Dk8p997L/e0/5NlvaMk2L4rv2zf9r8swO17w0bvds83YER1mFTOzKJKOyoBv5XYGRkm0HqGY4cSVPY+sytA49gSnqBWePEcaR/Lo6iZQMqv+IkiKQkyEgjpH5ovQbHySoWKOHh5PYn3beuQeBFEnnJ9qFQEJ5R4epIxXmmvZKAD1vmmTKfMmba60DHSlYxSgGoEHnyw5lprTwpJloH3w4ZzzhvyHEpqnCMnBjnyset3qLtuwgZ0GSOLYoD9PcNSqleSc8k82mO5+G9Algw/boQPjOa2aUf+9QrjYeuv+mmm9qTVXTwrvM5pe07z+diizn3mTd97tef8kqfPRr3wtIjWFFDchSUeTPQgBlTCo6FzwRCq+nIF1QJlB+ysAgRXtwacSTfdjM/OSW3p6YzE3WSxOQEAVBiMlRyFpEwOxG6rBxF+vVwH794vMdibNXpb/k+rG5IXiaKFelMIvPH75oVIn4APE8itORIE8at0VliLPWRJE6GOQvKF4qkQZLfoCOfqVf/pJlocxlPZCfV1pRzgvmY5hfZonPb8bskzpNzltOnVCpijNQGKT/FHM8iFRPJFVFjNEReOx5cvLm0+9Y3X7ev0/FfyvM6fuelvOlM13rlH38+e9/B+jcOZ065lBPUiRqINMq4qe0IRVRITEr0JZNx+VwOE2WCqZI+BMkKy5AkHl/t0KVxurm3VH820yElcQq8kJ0ok4Xne/B9yggkoWLzl9MjkuW2zMKvT/o6izJ5DU/4N9hJK7yNwpVJqHGqqp1u5ZJ7MWCbxVD8rUmOj0SdnM6iXlMJztSXpiPQdDxzlFAX/nZL/0v6/4xhiAOtNVzZaqQaKEJg0+JI5767KkmrRkdp/IAuinAhenrYoj6uCJznOHhfM2hAd/KI3HE8Z6D+299+58v/cunfurMrnjSOgo/74k9+a/B7e8cerhi5Qe6pucngVoQtzjqTaoLOjlHMZTFGEhXThi90d4pS32jZS7fStTRLqtL1N9Mx+fGT+YkOQ+mG+Gg0fAG6UFSWCEVJkLZGFPPACMyFN+hkuKb8Pn3k5gvRAShMCVd1JiDJnBL6Pvr6+jFRUSrnad5GqhxStlNXVVuKFkfRfKCpT50mimkj2afHIUqFkmxDfM+fFEriz5JQXRW51THjO0zethMzzInbmOsCU0FOKlmpqAFVziGbyYodyFROCgKlBztZa0ujrqaAEm82bd2Q4RAFunRgVGFYMl0yj2LkS0WUyzXBqEh0oatEMp2JWtxUAlOSqboeb8Dx+wa2bdvzozdc6HdkoGU46aRyFHy/l33yW5fdt79y+0iYKcaWykkIbIWjGQUY6Cni2OiwQGiVuB8TR2q0+P/TV7P52oxbEeULOHEy8gFwPoWiV6EUsKTZbBqmYorvWEGrphWFFNOaUteRTp/RBFd8JWcg6CCVm2iWf5XK19xHu21WpEBZ3IYIU1ZCcy64ePoKOvF295jvKC3s/OaCIS3yar6kSV7H4XZDFwWv9ke7AZ7bZhp89JQKGJtwFeu7yCIqNyp0jwlPZxT66PXHRi7ZvfOUW99wYa39cy3fGe3eePnuPMeVz3jTX7x3rP/M940GGarMgPLuYeih2D8oreJEFhI+q/bWEQx2iyKGR/HYRSpnN1dMTUnEEcAl+3AiGakrKRHMicCrVXEUycfYLGrSIGEihSQcjwXUaowkUtmCFFGphl190u0cQfspIOTIibOoN7gNUbgLkVgVUd7ZhJnaX3spz2iNbNKkLJ9NVTdi+AEjouWHhllxQ4SGrOImjE/UJQen6RE4i3l3cRZRjMHw2PD1151z2U3XnPXIUtphIdc6KR0FX+SM3/vcHz6l9b/d07N6Dg0M9uRxeGwcMBw0JCJUvAgCy2L5j45C+nsXN9BMYtpCQ5/yWSiUnSQ4A9YbyfE5abaZDLj4T6+zoZxe1ZFoIclLbNqwEQcPHpSQljgTOlBiAZikS3DY6iZLkJhlFJOKDLEaQmchSU0Vc8sxe3aos3dd8rMSQBUXHWmVl1JvINuA5T6E8ZVbjTjGli3bceDwYcRxAEPKqZxfJgpeufySM3PP/5sbrvqX5X6eTq5/0joKPvyut/6/T4xovb9bGhjQWPdvEMZtZ+FLQi5hWxLwC8Nb8hW67UtXbayimnFSVSwFx+UuleUyJvC8cGUmUyeDN1PHFRGmxJWQpi1FpRrcpjHSkG7ZljLvEjmKOFRt16moUE9Pst1JEJ1TtFs7erHlP0ltO1RSdjLvkopRL+/9A92WRScfu9x4YPP2HXj84EFxFMzFGYE7fkG/9R++9e4X3bm8T9L51U9qR/HKz3/eeOQB7y1HgsIflpEzYGUQSFlPQ9hwYUtCmbTxNgLNhskQbrH7YUnCqY9JjJOgGbkKUE1MCHvDWBKdgrsgnHka6KZdZ2DnwzP3meS1FBEeX4kZEcRDOjspGUsuUWVtWiv/Eu2ko75E/fWTNIZpLBXBEb2UqmARuA9XeUMVeaT/XCo7zHWd1nuyZ0LiTUOX5+KziBZrUu6V6yw316VU4Qx4YQhH12BGil4hP7gBY8eGMOAfO3z2tv4X/9N/u+5HK2GfTu9xUjuK9CXOfOff/+ZIWPp41SisByXdmEgMPTggszYFik1xFsxSL+6F0l3s5PZFJnbIjLSSHywmGWvhvaAor8gELO6unQ7W9POk0zHhCWUuh/wR5NrgIT0yrb0uC71JR7+bmvonVykdLEWkZcs27TlSZ9HRpZfwJAn3yZZtOxJdsXdDCpktKNyl4ERp98hhHMIyNcSBqkIRHWtpPrbngh+vs+u/dc+Nr/pZu2us9N+vzgxfwFs+98O3XHBkPPy70cA418/0IeA2BCGMiM6CdX+VO1hsfoBVAKVKqrRDUlEnlfziwEboLfWojstEv1NC1wW802J/Ij0F4hBClPIFTCROgugpOjCdyd22rrPdk0+NSDp5ZjowlgFpn7QaIsC1NtDnTq69kHNSuDWfi63izNeQkKe1CU6Nd/r/c8Yo04u8M5w8d55MyrG+K7mwKGQDmIfNmcYXrfL+1z3wibcSkXXSHWvGUdByL77p1txj9cr7j/i5t9btXqqBNNvRpfonI92a257J3ifgDaed1FrLVj0MPMRQrLCwPBr6qpOS9XaqbE3rNp3dqAtDUkxdr1s+fYbSuo5CNiOkM9wGqcYlIXVEzL6CNseki5vlqTvYR6m+hUmHIs+b0BLSkeULZMpyVcduir844blOvP/09578SYd2TBGjSdTgWLaMH7VepHqVVo2SywleR5VqmseMtheCpalHczcn8yTFTqizmtu9xJbErnATxDxFn+kd7gmGP3TOJf/pk194lShhnZTHmnIUqQWv+6Ov7XloyP2zMjJnR1bWFC0KmaiGTACT5DQJUnDqkLNMl47F5Ec0+S2oiTLZDznzhyZ4vSR6mY0eccrEmTL0s02xFocEVtoVIoTVHGkxYjST5BzS1np+dIrjkk6CslTpjdKJ3Ek0kH7kUy3V+l/to7Q0sTPzNVgBUS3qdSHAaUHDNz/KVvzL5KSc/ExPfIYT7dj6J8qxJziJWOVMuN0gSpUVLRpLgfpmPmb6MNQ6xCdl3KnOUD1AlJtQjVw8x2fHMzlII46i4kVRfpPzixqkJsygXhuMR+/4rWsvfM1NLzh94qT0Di0PtSYdRfr8l7777954qOa8Zdwc3FlD1nK0miozWaaE3mowE/Bt4uWndu0pR9Ca4JOKR5svozUZt1yJOZ9QMqqekdw2VELCwvFJtJ5GlGgkHa/kbfR9D/oKlPU6nczTZQHK07fdAAAFKElEQVSUgqH6WFXIf2ImQEvGp9N7TD9vSpI2+UuWbZUL05DL51AVcWUFOpPPdgG5JdIdEHk5SdSYNgwm+BW6HpaiBaBHlXfFbE6hJc1rIGdbNbsx8uB5G5y33faul353oe+70r9b044iNdaeD3zxTU+Nx79TtXtOr0W6weSZzkkZqCSklDgTvsHJLEb66upP0s7A1uaoycGY9ByTwWTy+yST3z4X0G5dnjoUbE8W/QjybbDWr+uoug2YtoPA86VrljD2FJJNMuG5j2n3nzGubzcdOnuHE/RDyFyW9IbwPSQaa/lIm3HbTF/7CS81+zMkHRbKCSh0tjgFQ9eky5UVIkF0NHNZCRjshEvOZYepEaf0iAr4rxljwNRIVWDAi21VXNf9uGRO+KXyob0XnTJ4/T+87de+t9If+mLv125mLPb6K/b7V77y84b3bHvzvn1PfbJi9l41bvU5NasgHadEbpqxD1KLTUHeUTx2yqqy+GToUr2woQWi0q5o9BlNaGgEbFJLIeucgCzzkXhGJQ757yfjwXyF8HQKroIFkbnEoJf2DVJnIdoldFaLNlHLBWQbkqS9BSGsuMqpfGfoETSvFuW88aPbMtHf6gPrbv6Xd7yksmZaj6cNw6LNtrTDujRXe+XnH7J//M17es8789Tdw8ePv+jImHddwyic7eoZK9AtAdpwEVEfV9rtkGxDVssiSeKN+3k+k0FAbxRi16k7cOTIEdQ9H34ckSQQOhjSKgmCmUBXS2PF1b1KCoLiU7BbmHmFZhAkVRVNkrdEnaagqXbxzlK8kfTdNqkCQ2HCMuMgNONAQ+gfdox477bB3r+ux9XvBkPl4y/t3T+xGvwRS/GurddYrc9iqd9jzuvddFOsP3ra9wuP7x1aPzRSzoZaaFqW4+SzthkFsW5Yum7ouhbrmmZomhYzzNA0zYgjLeY/GbFGZG7gvxCZKawi8p9GC547ZJupnNN68MTkmHb+9LNM3YgbQUAgjkZKwKyVn+jrzYXHho9lYw1FX094XaUOLAEv3Yrk42I+X8LHoclzLPJouUYUc0M2mZAPpXlEHXEUaSqkV89AFOj0ozWVLxskeb8ZDskxxnEUxzFxbKalx6Tio11D7h099U9lc0UQLPydvJ5pcouh8e84ls3nE2w5/ytgU1/zuZvvwOtKi0xyj2S4mucST6dHcchsZRDQUZMAIQobfkhpOif0Q9+vNTYO9gztvmLPxKeu3MFOr6fd8UvhKJ52o9Z9oa4FVtgCXUexwgbv3q5rgbVoga6jWIuj1n3mrgVW2AJdR7HCBu/ermuBtWiBrqNYi6PWfeauBVbYAl1HscIG796ua4G1aIGuo1iLo9Z95q4FVtgCXUexwgbv3q5rgbVoga6jWIuj1n3mrgVW2AJdR7HCBu/ermuBtWiBrqNYi6PWfeauBVbYAl1HscIG796ua4G1aIGuo1iLo9Z95q4FVtgCXUexwgbv3q5rgbVoga6jWIuj1n3mrgVW2AJdR7HCBu/ermuBtWiBrqNYi6PWfeauBVbYAl1HscIG796ua4G1aIGuo1iLo9Z95q4FVtgCXUexwgbv3q5rgbVoga6jWIuj1n3mrgVW2AJdR7HCBu/ermuBtWiBrqNYi6PWfeauBVbYAl1HscIG796ua4G1aIGuo1iLo9Z95q4FVtgCXUexwgbv3q5rgbVoga6jWIuj1n3mrgVW2AJdR7HCBu/ermuBtWiBrqNYi6PWfeauBVbYAl1HscIG796ua4G1aIH/D7Bl0W7ja+G3AAAAAElFTkSuQmCC;" vertex="1" parent="1">
          <mxGeometry x="700" y="550" width="121" height="121" as="geometry" />
        </mxCell>
      </root>
    </mxGraphModel>
  </diagram>
</mxfile>
